<?xml version="1.0" encoding="UTF-8" standalone="no"?>
<!-- Created with Inkscape (http://www.inkscape.org/) -->

<svg
   width="512"
   height="512"
   viewBox="0 0 135.46666 135.46667"
   version="1.1"
   id="svg5"
   inkscape:export-filename="C:\Users\axeld\OneDrive\Escritorio\Cadete.png"
   inkscape:export-xdpi="96"
   inkscape:export-ydpi="96"
   inkscape:version="1.1.2 (b8e25be833, 2022-02-05)"
   sodipodi:docname="Cadete.svg"
   xmlns:inkscape="http://www.inkscape.org/namespaces/inkscape"
   xmlns:sodipodi="http://sodipodi.sourceforge.net/DTD/sodipodi-0.dtd"
   xmlns="http://www.w3.org/2000/svg"
   xmlns:svg="http://www.w3.org/2000/svg">
  <sodipodi:namedview
     id="namedview7"
     pagecolor="#ffffff"
     bordercolor="#111111"
     borderopacity="1"
     inkscape:pageshadow="0"
     inkscape:pageopacity="0"
     inkscape:pagecheckerboard="1"
     inkscape:document-units="mm"
     showgrid="false"
     units="px"
     inkscape:zoom="0.99597362"
     inkscape:cx="47.692026"
     inkscape:cy="261.05109"
     inkscape:window-width="1366"
     inkscape:window-height="745"
     inkscape:window-x="-8"
     inkscape:window-y="-8"
     inkscape:window-maximized="1"
     inkscape:current-layer="layer1" />
  <defs
     id="defs2" />
  <g
     inkscape:label="Layer 1"
     inkscape:groupmode="layer"
     id="layer1">
    <path
       style="fill:#000000;stroke-width:0.264583"
       d="m 35.616712,110.32238 c -5.279697,-1.01193 -9.70084,-5.69414 -10.55313,-11.176288 l -0.313335,-2.01545 -5.839542,-0.0116 c -7.367641,-0.0146 -8.305486,-0.28941 -9.4429736,-2.76651 -0.369475,-0.8046 -0.487382,-1.70852 -0.491799,-3.77031 l -0.0058,-2.71198 h -3.949546 -3.949547 l -0.54837004,-0.69714 c -0.721235,-0.9169 -0.692971,-1.75108 0.09018,-2.66155 L 1.2513984,83.769202 H 12.277423 23.303448 l 0.63855,0.74235 c 0.78315,0.91047 0.811415,1.74465 0.09018,2.66155 l -0.54837,0.69714 h -5.1501 -5.1501 l 0.07607,2.44739 0.07608,2.4474 6.092239,0.0709 6.092239,0.0709 0.77694,-1.65837 c 0.945761,-2.01873 3.665746,-4.86508 5.572336,-5.83123 4.551916,-2.30662 9.814861,-2.07006 13.846863,0.62241 1.99124,1.3297 3.49813,3.04475 4.572433,5.20408 l 0.822714,1.65365 h 21.924094 21.92409 v -8.35473 -8.35472 l 0.7734,-0.7734 c 0.42537,-0.42537 0.96706,-0.7734 1.20377,-0.7734 0.65395,0 1.90673,0.72016 2.09181,1.20248 0.0904,0.23557 0.16436,4.16903 0.16436,8.74104 0,7.93213 0.0226,8.31273 0.49284,8.31273 0.342104,0 0.745534,-0.51326 1.318934,-1.67801 2.26591,-4.60272 6.73014,-7.34887 11.94656,-7.34887 5.20602,0 9.53706,2.65208 11.94914,7.31694 l 0.88315,1.70798 2.71198,0.001 2.71198,0.001 v -4.7625 -4.7625 h -1.75524 c -0.96538,0 -2.21644,-0.13818 -2.78013,-0.30707 -1.45165,-0.43492 -3.10392,-1.9502 -3.83242,-3.51468 -0.55137,-1.18407 -0.62317,-1.72626 -0.62546,-4.72309 -0.002,-3.24334 0.0247,-3.41273 0.64685,-4.03489 0.62798,-0.62815 0.77239,-0.6496 4.37242,-0.6496 h 3.72298 l -0.43329,-0.85989 c -0.60807,-1.20676 -1.90785,-2.52551 -3.15217,-3.19819 -1.03997,-0.56219 -1.29366,-0.57343 -14.61823,-0.64741 l -13.559894,-0.0753 v 1.60867 c 0,1.35519 -0.10233,1.711 -0.64944,2.2581 -1.00908,1.00908 -2.70141,0.7093 -3.29014,-0.58282 -0.20677,-0.45382 -0.29376,-6.39958 -0.29376,-20.07915 V 29.132735 H 54.081577 13.203454 v 19.723487 19.72348 l -0.649432,0.64943 c -1.009082,1.00908 -2.7014126,0.7093 -3.2901416,-0.58282 -0.383897,-0.84256 -0.412528,-39.207721 -0.03029,-40.583647 0.295541,-1.063837 1.6225786,-2.464819 2.7303146,-2.882452 0.513675,-0.193663 13.613629,-0.280811 42.211122,-0.280811 h 41.466299 l 1.17945,0.595313 c 1.87737,0.947577 2.36258,2.082839 2.3679,5.54025 l 0.004,2.828274 8.929694,0.08604 c 8.59334,0.0828 8.9867,0.108929 10.44336,0.693595 1.84049,0.738725 3.61569,2.402898 4.60568,4.317608 0.63263,1.22356 0.74734,1.79901 0.84005,4.21451 l 0.10739,2.79747 -0.82664,0.69557 -0.82664,0.69557 1.59685,6.42884 c 0.87827,3.53586 1.69956,6.6705 1.82508,6.96586 0.15148,0.35644 0.68747,0.65474 1.59386,0.88704 2.92379,0.74934 5.96428,3.55679 7.2506,6.69489 0.56077,1.36805 0.57845,1.75381 0.65417,14.27614 l 0.0778,12.8701 -0.64959,0.75594 -0.6496,0.75594 -3.82676,0.0851 -3.82677,0.0851 -0.31254,1.93743 c -0.79,4.897198 -4.23585,9.063068 -8.90342,10.763798 -1.23176,0.44882 -2.15929,0.57066 -4.34427,0.57066 -2.18497,0 -3.1125,-0.12184 -4.34426,-0.57066 -4.98078,-1.81486 -8.25415,-5.98724 -9.009454,-11.483808 l -0.17288,-1.25817 -23.86222,0.0675 -23.862242,0.0676 -0.157157,1.46109 c -0.827871,7.696698 -8.215029,13.076358 -15.926458,11.598348 z m 6.594432,-4.8633 c 5.817518,-2.84624 7.02447,-10.601788 2.324156,-14.934378 -4.656235,-4.29197 -11.756242,-2.90964 -14.578859,2.83843 -0.642559,1.30852 -0.744905,1.82961 -0.739968,3.76751 0.0065,2.55237 0.672793,4.388658 2.240127,6.173748 2.566815,2.92345 7.260989,3.86393 10.754544,2.15469 z m -5.327483,-4.21929 c -3.59451,-1.300188 -3.950298,-6.304438 -0.562522,-7.912038 3.087248,-1.465 6.476026,0.82199 6.197353,4.18242 -0.245208,2.956868 -2.904693,4.717148 -5.634831,3.729618 z m 79.920139,4.25195 c 3.19081,-1.4608 5.23193,-4.6591 5.25154,-8.228798 0.0144,-2.61604 -0.63665,-4.31356 -2.37397,-6.19007 -3.62258,-3.91283 -9.25795,-4.11899 -13.04465,-0.47724 -2.35099,2.261 -3.34568,5.62261 -2.56518,8.66917 0.88891,3.469758 3.37685,6.019308 6.68842,6.854058 1.62213,0.40888 4.41357,0.11924 6.04384,-0.62712 z m -5.25901,-4.24651 c -1.89657,-0.67641 -2.82675,-1.991108 -2.82675,-3.995308 0,-2.5061 1.42232,-4.09726 3.84185,-4.29791 1.76275,-0.14618 3.11726,0.4714 4.01749,1.83174 1.12774,1.70412 0.82192,4.26276 -0.67099,5.613818 -0.56269,0.50923 -2.27178,1.20776 -2.95502,1.20776 -0.21828,0 -0.85124,-0.16204 -1.40658,-0.3601 z m 19.66283,-24.487498 v -2.38125 h -2.38125 -2.38125 v 1.73181 c 0,1.48595 0.0922,1.82403 0.64943,2.38125 0.55723,0.55724 0.89531,0.64944 2.38125,0.64944 h 1.73182 z m -9.7971,-15.94115 c -0.004,-0.1819 -0.75571,-3.30729 -1.67016,-6.94531 l -1.66265,-6.61458 h -9.37619 -9.376194 l -0.0705,6.94531 -0.0705,6.94531 h 11.116894 c 8.72114,0 11.11528,-0.0713 11.10938,-0.33073 z m -1.65359,-18.72917 c -0.16902,-1.26014 -1.20201,-2.71556 -2.38747,-3.36381 -0.74765,-0.40884 -1.85553,-0.47201 -9.51132,-0.54229 l -8.665104,-0.0795 v 2.35056 c 0,1.2928 0.0794,2.42993 0.17639,2.52694 0.097,0.097 4.756124,0.17639 10.353584,0.17639 h 10.1772 z m -64.772917,45.28774 c -0.826686,-0.66941 -0.837851,-2.20063 -0.02199,-3.01653 l 0.589396,-0.58943 h 16.684317 16.6843 l 0.63859,0.74235 c 0.78319,0.91046 0.81146,1.74463 0.0902,2.66155 l -0.54839,0.69714 h -16.75252 c -15.973806,0 -16.780952,-0.023 -17.363926,-0.49508 z M 5.2960634,78.411372 c -0.306725,-0.25466 -0.6315,-0.8452 -0.721723,-1.31231 -0.137287,-0.71078 -0.03285,-0.98048 0.640309,-1.65365 l 0.80435,-0.80435 H 20.158878 c 13.701678,0 14.160563,0.0163 14.807284,0.52498 0.367075,0.28874 0.742844,0.82555 0.835046,1.19291 0.192892,0.76855 -0.40111,2.1036 -1.046067,2.35109 -0.235566,0.0904 -6.834748,0.16435 -14.664849,0.16435 -13.1697776,0 -14.2783356,-0.0347 -14.7942286,-0.46302 z"
       id="path916"
       sodipodi:nodetypes="csccsscccsscccsscccccccscsscccccsssssssscccccsssccscssscsssscccccssssscsccsssscccssssscccccssssscccsccssssssssssssssssssssssssccccssscccscccccsccssccssscscscccsscsccssscssssss" />
    <path
       d="M 40.052494,38.898951 H 34.510623 A 19.684729,22.505069 0 0 0 54.19757,61.406553 v 12.861849 c 0,1.860217 1.265763,3.294662 2.73325,3.294662 1.467488,0 2.881775,-1.447117 2.881775,-3.216097 V 61.502858 A 19.824385,22.664732 0 0 0 40.052494,38.898951 Z m 33.834237,-6.335887 a 19.686947,22.507603 0 0 0 -17.20862,11.584535 22.420197,25.632462 0 0 1 5.187193,10.803953 19.695813,22.51774 0 0 0 17.645319,-22.388488 z"
       id="path1440"
       style="stroke-width:0.237024" />
  </g>
</svg>
