<?xml version="1.0" encoding="UTF-8" standalone="no"?>
<!-- Created with Inkscape (http://www.inkscape.org/) -->

<svg
   width="132mm"
   height="182mm"
   viewBox="0 0 132 182"
   version="1.1"
   id="svg5"
   xml:space="preserve"
   inkscape:version="1.2.1 (9c6d41e410, 2022-07-14)"
   sodipodi:docname="catalogo.svg"
   inkscape:export-filename="..\png\catalogo.png"
   inkscape:export-xdpi="96"
   inkscape:export-ydpi="96"
   xmlns:inkscape="http://www.inkscape.org/namespaces/inkscape"
   xmlns:sodipodi="http://sodipodi.sourceforge.net/DTD/sodipodi-0.dtd"
   xmlns="http://www.w3.org/2000/svg"
   xmlns:svg="http://www.w3.org/2000/svg"><sodipodi:namedview
     id="namedview7"
     pagecolor="#ffffff"
     bordercolor="#111111"
     borderopacity="1"
     inkscape:showpageshadow="0"
     inkscape:pageopacity="0"
     inkscape:pagecheckerboard="1"
     inkscape:deskcolor="#d1d1d1"
     inkscape:document-units="mm"
     showgrid="false"
     inkscape:zoom="0.76969697"
     inkscape:cx="99.389764"
     inkscape:cy="142.26378"
     inkscape:window-width="1920"
     inkscape:window-height="1051"
     inkscape:window-x="-9"
     inkscape:window-y="-9"
     inkscape:window-maximized="1"
     inkscape:current-layer="g293" /><defs
     id="defs2" /><g
     inkscape:label="Capa 1"
     inkscape:groupmode="layer"
     id="layer1"><g
       id="g293"
       transform="matrix(0.99995239,0,0,0.99842774,-18.817807,-44.880468)"><path
         id="path125"
         style="fill:#000000;stroke-width:0.352778"
         d="m 108.18856,45.953692 c -2.14657,0.02954 -7.79862,0.601177 -17.461262,1.762871 -8.925269,1.073044 -25.753192,3.068959 -37.394847,4.435126 -11.641655,1.366168 -22.031257,2.642748 -23.088062,2.837363 -4.109158,0.756721 -7.701022,3.53191 -9.477392,7.322178 l -0.948307,2.02373 v 71.79015 71.79015 l 0.948307,2.02373 c 1.143865,2.44068 3.735886,5.12136 6.019558,6.22543 0.921943,0.44572 2.706632,0.98665 3.965838,1.20234 2.103147,0.36025 2.368526,0.33341 3.262488,-0.33125 0.683066,-0.50785 1.005446,-1.09538 1.080606,-1.97094 0.135354,-1.57681 -0.970263,-2.54427 -3.26714,-2.8591 -3.184301,-0.43645 -5.544379,-2.30335 -6.492936,-5.13645 -0.57464,-1.7163 -0.57464,-140.171516 0,-141.88782 0.220824,-0.659543 0.785767,-1.716906 1.255281,-2.349287 1.842109,-2.481108 0.387235,-2.232778 42.239743,-7.205204 25.776969,-3.06252 38.981285,-4.496251 40.004115,-4.344033 1.78177,0.265162 4.12864,2.169435 4.87694,3.956884 0.39373,0.940465 0.47544,14.815522 0.47544,80.88555 0,87.68795 0.17876,81.03773 -2.23459,83.15669 -2.59339,2.27701 -0.75218,2.36963 -35.896679,-1.80428 -29.091889,-3.45509 -45.621493,-5.70706 -46.371231,-5.21582 -1.530734,1.00298 0.191986,4.16355 1.688418,5.1386 0.523201,0.34091 18.420617,2.25478 29.544515,3.57242 9.216309,1.09168 23.027488,2.7599 30.691577,3.70741 15.65709,1.93569 18.00702,1.99835 20.93667,0.55951 0.99977,-0.49102 2.33362,-1.36625 2.9643,-1.94506 l 1.14676,-1.05224 4.50123,0.0683 c 4.44318,0.0676 4.53186,0.0537 6.87691,-1.09882 1.65212,-0.81197 2.88019,-1.75211 4.0325,-3.08683 l 1.65683,-1.9197 h 3.57411 c 2.34333,0 4.14144,-0.19333 5.22215,-0.56157 2.12834,-0.72519 4.96269,-3.2855 6.16994,-5.5738 l 0.95038,-1.80169 0.092,-63.64968 0.092,-75.839684 -0.77054,-0.820362 c -0.94006,-1.000645 -2.38969,-1.061158 -3.51933,-0.146474 l -0.83255,0.674404 -0.17674,75.456676 c -0.13684,49.08052 -0.27336,63.43609 -0.60929,64.02234 -1.221,2.13088 -4.06002,3.42647 -7.08208,3.23176 l -1.65734,-0.10714 V 136.12511 61.159618 l 1.65734,-0.106621 c 2.17309,-0.140006 4.22637,0.437222 5.56685,1.565156 1.57921,1.32882 1.89972,2.108658 2.14209,5.210977 0.18161,2.324621 0.35163,2.897656 1.02118,3.439824 1.07134,0.867517 2.66759,0.825237 3.58806,-0.09523 0.67657,-0.676555 0.73175,-1.045423 0.59379,-3.968789 -0.18588,-3.938883 -1.13036,-6.039115 -3.79168,-8.431864 -2.39067,-2.149423 -4.228,-2.728672 -8.65621,-2.728672 h -3.57411 l -1.65683,-1.919179 c -1.15231,-1.33471 -2.38038,-2.274866 -4.0325,-3.086836 -2.34505,-1.152524 -2.43373,-1.166906 -6.87691,-1.099336 l -4.50123,0.06884 -1.14676,-1.052754 c -1.64695,-1.511499 -4.37269,-2.739515 -6.6149,-2.980732 -0.16504,-0.01776 -0.39979,-0.02492 -0.70645,-0.0207 z m 13.55899,9.023456 c 2.95174,-0.100383 5.80801,1.342227 7.15908,3.727597 l 0.79069,1.396426 v 76.023939 76.02342 l -0.79069,1.39643 c -0.43502,0.76804 -1.45052,1.86009 -2.2563,2.42641 -1.19774,0.8418 -1.90514,1.05289 -3.87747,1.15782 -1.32688,0.0706 -2.65052,0.0108 -2.94156,-0.13302 -0.46807,-0.23123 -0.52919,-9.57953 -0.52919,-80.96008 V 55.3379 l 1.17879,-0.221523 c 0.42148,-0.07907 0.84498,-0.124888 1.26665,-0.139229 z M 94.384613,161.35963 c -2.837134,-0.057 -9.359697,0.22808 -25.000697,1.0305 -13.889712,0.71257 -25.85774,1.4781 -26.634785,1.70387 -1.86541,0.54199 -4.473584,3.16077 -5.036625,5.05673 -0.622202,2.09519 -0.565159,17.13666 0.07183,18.92162 0.721602,2.02207 2.129648,3.63676 3.930696,4.50863 1.48585,0.71929 3.843459,0.96977 26.556233,2.81873 13.709018,1.116 25.177768,2.04686 25.48648,2.06876 1.088434,0.0773 3.895031,-0.97042 5.136881,-1.91763 0.693582,-0.52902 1.633784,-1.76764 2.097654,-2.76387 0.83112,-1.78502 0.84085,-1.93298 0.84185,-13.27018 9.4e-4,-7.30435 -0.14028,-11.97732 -0.38915,-12.87631 -0.5473,-1.977 -3.201878,-4.56366 -5.250576,-5.11626 -0.328005,-0.0885 -0.864083,-0.1456 -1.809795,-0.16459 z m -0.766398,5.10436 c 0.801265,0 1.484246,0.28661 2.063539,0.8659 l 0.866138,0.86591 v 11.08911 c 0,10.03843 -0.05871,11.16152 -0.617563,11.8453 -0.352921,0.43181 -1.145807,0.81412 -1.851655,0.89282 -1.196381,0.13344 -47.693988,-3.5265 -49.309932,-3.88132 -0.441497,-0.0969 -1.116085,-0.49004 -1.499205,-0.87315 -0.6515,-0.6515 -0.696631,-1.20002 -0.696631,-8.48052 0,-7.92459 0.130785,-8.81679 1.391196,-9.49135 0.536154,-0.28694 45.160844,-2.8327 49.654113,-2.8327 z m -37.588642,10.23044 -0.731256,0.92958 c -1.16431,1.48017 -0.793374,3.3617 0.791203,4.0133 0.42388,0.17428 6.698651,0.28451 13.943482,0.24481 l 13.172433,-0.0725 0.673893,-0.83278 c 0.890104,-1.09972 0.853604,-2.45807 -0.09302,-3.46571 l -0.766915,-0.81674 H 69.524482 Z"
         sodipodi:nodetypes="sssscccccssssssssssssssssssscccsccssccccccccscccccsssssssccscccssssccccssssccsscssssscsscssssccsscsssssccsccccccccs" /><path
         style="fill:#000000;stroke-width:0.0721107"
         d="m 67.634954,143.80458 c -0.60617,-0.21269 -0.99358,-0.52793 -1.477731,-1.20246 -0.35555,-0.49534 -0.74637,-1.58508 -0.82818,-2.3092 -0.0387,-0.34256 -0.0622,-3.81343 -0.0625,-9.22145 l -4.6e-4,-8.67211 -0.84603,-0.0578 c -5.874854,-0.40191 -10.915087,-3.53387 -14.97297,-9.30409 -3.613601,-5.13846 -5.761023,-12.07975 -6.001493,-19.399089 l -0.0415,-1.263225 h 3.764523 c 2.946921,0 3.959172,0.02807 4.660702,0.129263 4.435343,0.639745 8.494765,3.03032 11.960058,7.043215 0.661849,0.766446 2.28012,3.038996 2.806181,3.940746 2.379801,4.07936 3.927253,8.67979 4.576753,13.6063 0.33022,2.50467 0.32579,2.34344 0.35243,12.84489 0.0179,7.05472 0.005,9.95669 -0.0448,10.35262 -0.10857,0.8579 -0.38504,1.56001 -0.88589,2.24971 -0.840441,1.15736 -1.931972,1.62315 -2.959113,1.26276 z m 6.064334,-30.48917 c -0.28856,-1.568 -0.974121,-4.01439 -1.66446,-5.9396 -0.978631,-2.72917 -2.126722,-5.0769 -3.711493,-7.589617 l -0.29609,-0.469466 0.38166,-0.872104 c 3.286742,-7.510167 8.841735,-12.719271 15.069959,-14.131614 1.582061,-0.358754 2.055241,-0.389048 6.076674,-0.389048 h 3.848552 l -0.0415,1.264262 c -0.242933,7.394161 -2.394183,14.258239 -6.128003,19.552807 -1.822962,2.58498 -3.686083,4.446 -6.063054,6.0562 -2.328721,1.57754 -4.383273,2.41952 -7.109935,2.91376 l -0.28014,0.0508 z"
         id="path240" /></g></g></svg>
