<?xml version="1.0" encoding="UTF-8" standalone="no"?>
<!-- Created with Inkscape (http://www.inkscape.org/) -->

<svg
   width="137mm"
   height="127mm"
   viewBox="0 0 137 127"
   version="1.1"
   id="svg5"
   xml:space="preserve"
   inkscape:version="1.2.1 (9c6d41e410, 2022-07-14)"
   sodipodi:docname="clientes.svg"
   inkscape:export-filename="..\png\clientes.png"
   inkscape:export-xdpi="96"
   inkscape:export-ydpi="96"
   xmlns:inkscape="http://www.inkscape.org/namespaces/inkscape"
   xmlns:sodipodi="http://sodipodi.sourceforge.net/DTD/sodipodi-0.dtd"
   xmlns="http://www.w3.org/2000/svg"
   xmlns:svg="http://www.w3.org/2000/svg"><sodipodi:namedview
     id="namedview7"
     pagecolor="#ffffff"
     bordercolor="#111111"
     borderopacity="1"
     inkscape:showpageshadow="0"
     inkscape:pageopacity="0"
     inkscape:pagecheckerboard="1"
     inkscape:deskcolor="#d1d1d1"
     inkscape:document-units="mm"
     showgrid="false"
     inkscape:zoom="1.5393939"
     inkscape:cx="451.15158"
     inkscape:cy="407.62795"
     inkscape:window-width="1920"
     inkscape:window-height="1051"
     inkscape:window-x="-9"
     inkscape:window-y="-9"
     inkscape:window-maximized="1"
     inkscape:current-layer="layer1" /><defs
     id="defs2" /><g
     inkscape:label="Capa 1"
     inkscape:groupmode="layer"
     id="layer1"><g
       id="g2465"
       transform="matrix(0.99703872,0,0,1.0093812,-31.234654,-91.705357)"><path
         style="fill:#000000;stroke-width:0.264583"
         d="m 71.172975,215.39327 c -1.645181,-0.44763 -3.43667,-1.53692 -4.477736,-2.72263 -0.955908,-1.08872 -2.109295,-3.3712 -2.11962,-4.1946 -0.01492,-1.19043 0.231093,-1.1677 -13.501969,-1.24718 l -13.087188,-0.0757 -1.190625,-0.62383 c -1.623245,-0.85051 -2.822621,-2.0328 -3.661646,-3.6095 l -0.703979,-1.32292 -0.07538,-16.13958 c -0.06489,-13.89498 -0.0169,-16.43396 0.345072,-18.25625 1.27072,-6.39718 5.813442,-11.45611 12.16572,-13.54814 1.935604,-0.63747 2.573733,-0.70687 7.459869,-0.8113 4.299822,-0.0919 5.771476,-0.0274 7.536412,0.3302 5.121915,1.03784 9.531516,4.18301 12.064803,8.60528 0.375127,0.65485 0.717974,1.23782 0.761887,1.29551 0.04391,0.0577 0.945456,-0.7172 2.003433,-1.72195 4.001367,-3.80008 8.983082,-6.43135 14.832768,-7.83447 2.227897,-0.53439 3.11671,-0.58524 10.374159,-0.59354 6.787485,-0.008 8.263345,0.0624 10.186465,0.48419 5.85259,1.28369 11.18809,4.05976 15.32037,7.97123 1.096,1.03743 2.00689,1.71484 2.06782,1.53777 0.0599,-0.17405 0.59286,-1.06525 1.18437,-1.98043 2.18232,-3.37648 5.57448,-5.94733 9.60556,-7.27989 1.93886,-0.64092 2.56551,-0.70929 7.45987,-0.8139 6.3598,-0.13593 8.57736,0.20003 11.85471,1.79597 3.88359,1.89114 6.64446,4.68534 8.49225,8.59472 1.66691,3.52671 1.72133,4.26105 1.63732,22.09271 l -0.0754,16.00729 -0.61186,1.24218 c -0.78069,1.58497 -2.35717,3.16145 -3.95596,3.95597 l -1.25301,0.62268 -13.02807,0.0756 -13.02806,0.0756 -0.15331,0.71814 c -0.65135,3.05116 -2.34913,5.3173 -4.99806,6.67127 l -1.81174,0.92604 -28.20496,0.0513 c -21.794924,0.0396 -28.479809,-0.0235 -29.414289,-0.27777 z m 56.239325,-8.01004 c 0.38967,-0.38966 0.42253,-1.69999 0.34011,-13.55989 l -0.0912,-13.12855 -0.71987,-2.32524 c -2.66737,-8.61588 -8.56781,-14.39808 -17.25276,-16.90704 -1.99867,-0.57738 -2.5444,-0.61096 -9.789585,-0.60231 -7.618915,0.009 -7.68953,0.0143 -10.033286,0.73956 -8.418469,2.60507 -14.130995,8.31772 -16.734299,16.73466 l -0.730047,2.36037 -0.09124,13.12855 c -0.08242,11.8599 -0.04956,13.17023 0.340111,13.55989 0.393094,0.3931 2.821292,0.43135 27.381046,0.43135 24.55976,0 26.98796,-0.0383 27.38105,-0.43135 z M 64.390258,189.75677 c 0.138464,-10.06778 0.235029,-11.00354 1.545407,-14.97549 0.800346,-2.42597 0.62561,-5.87213 -0.414168,-8.16824 -0.912781,-2.01567 -2.965296,-4.04321 -5.110901,-5.04871 -1.501589,-0.7037 -1.596755,-0.71329 -7.078302,-0.71329 -5.481548,0 -5.576713,0.01 -7.078303,0.71329 -2.129383,0.9979 -4.19407,3.03153 -5.125823,5.04871 l -0.760457,1.64633 -0.07424,15.54427 -0.07424,15.54427 h 12.01956 12.01956 z m 95.378772,-5.95313 -0.0742,-15.54427 -0.76046,-1.64633 c -0.93175,-2.01718 -2.99644,-4.05081 -5.12582,-5.04871 -1.50159,-0.7037 -1.59676,-0.71329 -7.0783,-0.71329 -5.48155,0 -5.57672,0.01 -7.07831,0.71329 -2.13205,0.99915 -4.19473,3.03177 -5.12337,5.04871 -0.68084,1.47874 -0.75826,1.92914 -0.76046,4.42446 -0.002,2.27425 0.12621,3.19196 0.7069,5.05984 1.02098,3.28408 1.27503,6.33318 1.27503,15.30265 v 7.94792 h 12.04663 12.04664 z M 49.803097,150.656 c -1.067934,-0.27973 -2.615746,-0.88981 -3.439583,-1.35574 -1.877588,-1.06187 -4.70668,-3.90476 -5.670855,-5.69852 -0.939705,-1.74823 -1.780156,-5.03423 -1.780156,-6.96007 0,-1.92585 0.840451,-5.21185 1.780156,-6.96008 0.963467,-1.79244 3.792843,-4.63642 5.667162,-5.69641 1.817033,-1.0276 5.070329,-1.8956 7.104765,-1.8956 1.913589,0 5.199195,0.83645 6.965029,1.77316 1.74267,0.92442 4.854276,4.04116 5.806897,5.81649 0.940128,1.75204 1.780156,5.03751 1.780156,6.96244 0,1.92492 -0.840028,5.21039 -1.780156,6.96243 -0.952621,1.77533 -4.064227,4.89207 -5.806897,5.81649 -1.820534,0.96573 -5.082063,1.77659 -7.073499,1.75859 -0.886227,-0.008 -2.485086,-0.24344 -3.553019,-0.52318 z m 7.049074,-8.37032 c 4.164157,-2.5624 4.246908,-8.5968 0.153493,-11.19277 -3.147482,-1.99608 -7.231922,-1.01251 -9.221909,2.22072 -0.707171,1.14897 -0.80146,1.53806 -0.80146,3.30729 0,1.71486 0.106181,2.18575 0.733503,3.25292 1.37566,2.34022 3.498533,3.45999 6.225957,3.28407 1.248966,-0.0806 1.979849,-0.2996 2.910416,-0.87223 z m 39.649472,8.64895 c -4.810207,-0.87522 -8.843875,-2.90952 -12.309456,-6.20801 -9.450816,-8.99514 -9.511091,-24.00753 -0.132385,-32.97202 3.028249,-2.8945 5.76444,-4.4874 9.807559,-5.70956 3.04882,-0.9216 8.328009,-1.04191 11.455559,-0.26106 4.18284,1.04433 8.21298,3.36909 11.12873,6.41957 2.89012,3.02367 4.47997,5.75221 5.7146,9.80756 0.62878,2.06537 0.70857,2.75941 0.70857,6.16389 0,3.40448 -0.0798,4.09852 -0.70857,6.16389 -1.28562,4.22281 -3.2855,7.52245 -6.29594,10.38773 -2.93233,2.79096 -6.29841,4.69821 -10.07062,5.70611 -2.19906,0.58757 -7.310752,0.8635 -9.298047,0.5019 z m 6.772677,-8.06644 c 5.89389,-1.24896 10.76759,-6.49054 11.63236,-12.51038 1.3077,-9.10324 -5.77918,-17.25158 -15.007721,-17.25556 -7.977868,-0.003 -14.943886,6.96259 -14.940454,14.94046 0.0042,9.66736 8.853796,16.83058 18.315815,14.82548 z m 39.66211,7.78781 c -1.06794,-0.27973 -2.61575,-0.88981 -3.43959,-1.35574 -1.87759,-1.06187 -4.70668,-3.90476 -5.67085,-5.69852 -0.93971,-1.74823 -1.78016,-5.03423 -1.78016,-6.96007 0,-1.92585 0.84045,-5.21185 1.78016,-6.96008 0.96346,-1.79244 3.79284,-4.63642 5.66716,-5.69641 1.81703,-1.0276 5.07033,-1.8956 7.10476,-1.8956 1.91359,0 5.1992,0.83645 6.96503,1.77316 1.74267,0.92442 4.85428,4.04116 5.8069,5.81649 0.94013,1.75204 1.78016,5.03751 1.78016,6.96244 0,1.92492 -0.84003,5.21039 -1.78016,6.96243 -0.95262,1.77533 -4.06423,4.89207 -5.8069,5.81649 -1.82053,0.96573 -5.08206,1.77659 -7.07349,1.75859 -0.88623,-0.008 -2.48509,-0.24344 -3.55302,-0.52318 z m 7.04907,-8.37032 c 4.16416,-2.5624 4.24691,-8.5968 0.15349,-11.19277 -3.14748,-1.99608 -7.23192,-1.01251 -9.22191,2.22072 -0.70717,1.14897 -0.80146,1.53806 -0.80146,3.30729 0,1.71486 0.10619,2.18575 0.73351,3.25292 1.37566,2.34022 3.49853,3.45999 6.22595,3.28407 1.24897,-0.0806 1.97985,-0.2996 2.91042,-0.87223 z"
         id="path2320"
         sodipodi:nodetypes="cssscsscsssscssssccsssssssscsscccssccccsscsscsscsssssssssscscccccsccssscssssccccsssssssssssssscssssccsssssssscsssssccsssssssssssssssssssscs" /><g
         id="g2458"><path
           style="fill:#000000;stroke-width:0.026331"
           d="m 100.19018,111.80396 c -0.24247,-0.0709 -0.39744,-0.17598 -0.5911,-0.40082 -0.14222,-0.16512 -0.29854,-0.52836 -0.33127,-0.76974 -0.0155,-0.11418 -0.0249,-1.27114 -0.025,-3.07381 l -1.9e-4,-2.8907 -0.33841,-0.0193 c -2.34994,-0.13397 -4.36603,-1.17796 -5.98919,-3.10137 -1.44544,-1.712818 -2.304404,-4.026581 -2.400591,-6.466362 l -0.0166,-0.421072 h 1.505811 c 1.17877,0 1.58367,0.0094 1.86428,0.04309 1.77414,0.213248 3.3979,1.010107 4.78402,2.347739 0.26474,0.255484 0.91205,1.012999 1.12248,1.313583 0.95192,1.359786 1.5709,2.893262 1.8307,4.535432 0.13208,0.83489 0.13031,0.78115 0.14097,4.28163 0.007,2.35158 0.002,3.3189 -0.0179,3.45088 -0.0435,0.28596 -0.15402,0.51999 -0.35437,0.7499 -0.33617,0.38579 -0.77278,0.54105 -1.18364,0.42092 z m 2.42572,-10.16306 c -0.11542,-0.52266 -0.38964,-1.33813 -0.66578,-1.979866 -0.39144,-0.909724 -0.85068,-1.692299 -1.48459,-2.529874 l -0.11843,-0.156488 0.15266,-0.2907 c 1.3147,-2.503386 3.53669,-4.239757 6.02798,-4.710536 0.63282,-0.119584 0.82209,-0.129684 2.43067,-0.129684 h 1.53942 l -0.0166,0.42142 c -0.0972,2.464722 -0.95767,4.752748 -2.4512,6.517602 -0.72919,0.86166 -1.47443,1.481996 -2.42522,2.018736 -0.93149,0.52585 -1.75331,0.80651 -2.84397,0.97125 l -0.11206,0.0169 z"
           id="path2322" /><path
           style="fill:#000000;stroke-width:0.026331"
           d="m 53.17256,128.66233 c -0.24247,-0.0709 -0.39744,-0.17598 -0.5911,-0.40082 -0.14222,-0.16512 -0.29854,-0.52836 -0.33127,-0.76974 -0.0155,-0.11418 -0.0249,-1.27114 -0.025,-3.07381 l -1.9e-4,-2.8907 -0.33841,-0.0193 c -2.34994,-0.13397 -4.36603,-1.17796 -5.98919,-3.10137 -1.44544,-1.71281 -2.304404,-4.02658 -2.400591,-6.46636 l -0.0166,-0.42107 h 1.505811 c 1.17877,0 1.58367,0.009 1.86428,0.0431 1.77414,0.21324 3.3979,1.0101 4.78402,2.34774 0.26474,0.25548 0.91205,1.01299 1.12248,1.31358 0.951919,1.35979 1.570899,2.89326 1.830699,4.53543 0.13208,0.83489 0.13031,0.78115 0.14097,4.28163 0.007,2.35158 0.002,3.3189 -0.0179,3.45088 -0.0435,0.28596 -0.15402,0.51999 -0.35437,0.7499 -0.33617,0.38579 -0.77278,0.54105 -1.183639,0.42092 z m 2.425719,-10.16306 c -0.11542,-0.52266 -0.38964,-1.33812 -0.66578,-1.97986 -0.39144,-0.90972 -0.85068,-1.6923 -1.484589,-2.52988 l -0.11843,-0.15649 0.152659,-0.2907 c 1.3147,-2.50338 3.53669,-4.23975 6.02798,-4.71053 0.63282,-0.11959 0.82209,-0.12969 2.43067,-0.12969 h 1.53942 l -0.0166,0.42142 c -0.0972,2.46472 -0.95767,4.75275 -2.4512,6.51761 -0.72919,0.86166 -1.47443,1.482 -2.42522,2.01873 -0.93149,0.52585 -1.75331,0.80651 -2.84397,0.97125 l -0.11206,0.0169 z"
           id="path2322-2" /><path
           style="fill:#000000;stroke-width:0.026331"
           d="m 146.11631,128.66233 c -0.24247,-0.0709 -0.39744,-0.17598 -0.5911,-0.40082 -0.14222,-0.16512 -0.29854,-0.52836 -0.33127,-0.76974 -0.0155,-0.11418 -0.0249,-1.27114 -0.025,-3.07381 l -1.9e-4,-2.8907 -0.33841,-0.0193 c -2.34994,-0.13397 -4.36603,-1.17796 -5.98919,-3.10137 -1.44544,-1.71282 -2.30441,-4.02659 -2.40059,-6.46637 l -0.0166,-0.42107 h 1.50581 c 1.17877,0 1.58367,0.009 1.86428,0.0431 1.77414,0.21325 3.3979,1.01011 4.78402,2.34774 0.26474,0.25548 0.91205,1.013 1.12248,1.31359 0.95192,1.35978 1.5709,2.89326 1.8307,4.53543 0.13208,0.83489 0.13031,0.78115 0.14097,4.28163 0.007,2.35158 0.002,3.3189 -0.0179,3.45088 -0.0435,0.28596 -0.15402,0.51999 -0.35437,0.7499 -0.33617,0.38579 -0.77278,0.54105 -1.18364,0.42092 z m 2.42572,-10.16306 c -0.11542,-0.52266 -0.38964,-1.33813 -0.66578,-1.97987 -0.39144,-0.90972 -0.85068,-1.6923 -1.48459,-2.52987 l -0.11843,-0.15649 0.15266,-0.2907 c 1.3147,-2.50339 3.53669,-4.23976 6.02798,-4.71054 0.63282,-0.11958 0.82209,-0.12968 2.43067,-0.12968 h 1.53942 l -0.0166,0.42142 c -0.0972,2.46472 -0.95767,4.75275 -2.4512,6.5176 -0.72919,0.86166 -1.47443,1.482 -2.42522,2.01874 -0.93149,0.52585 -1.75331,0.80651 -2.84397,0.97125 l -0.11206,0.0169 z"
           id="path2322-3" /></g></g></g></svg>
