<?xml version="1.0" encoding="UTF-8" standalone="no"?>
<!-- Created with Inkscape (http://www.inkscape.org/) -->

<svg
   width="137mm"
   height="137mm"
   viewBox="0 0 137 137"
   version="1.1"
   id="svg5"
   xml:space="preserve"
   inkscape:version="1.2.1 (9c6d41e410, 2022-07-14)"
   sodipodi:docname="feria.svg"
   inkscape:export-filename="..\png\feria.png"
   inkscape:export-xdpi="96"
   inkscape:export-ydpi="96"
   xmlns:inkscape="http://www.inkscape.org/namespaces/inkscape"
   xmlns:sodipodi="http://sodipodi.sourceforge.net/DTD/sodipodi-0.dtd"
   xmlns="http://www.w3.org/2000/svg"
   xmlns:svg="http://www.w3.org/2000/svg"><sodipodi:namedview
     id="namedview7"
     pagecolor="#ffffff"
     bordercolor="#111111"
     borderopacity="1"
     inkscape:showpageshadow="0"
     inkscape:pageopacity="0"
     inkscape:pagecheckerboard="1"
     inkscape:deskcolor="#d1d1d1"
     inkscape:document-units="mm"
     showgrid="false"
     inkscape:zoom="2.1770318"
     inkscape:cx="259.75735"
     inkscape:cy="472.89158"
     inkscape:window-width="1920"
     inkscape:window-height="1051"
     inkscape:window-x="-9"
     inkscape:window-y="-9"
     inkscape:window-maximized="1"
     inkscape:current-layer="g244" /><defs
     id="defs2" /><g
     inkscape:label="Capa 1"
     inkscape:groupmode="layer"
     id="layer1"><g
       id="g244"><g
         id="g297"><path
           style="fill:#000000;stroke-width:0.264065"
           d="M 5.886055,135.83729 C 4.067134,135.2815 2.442232,133.90831 1.491934,132.12386 1.0234,131.24405 1,130.14551 1,109.0302 V 86.860277 l 0.575325,-1.07371 c 1.286784,-2.4015 3.825461,-3.80895 6.870328,-3.80895 h 1.405166 l -0.0018,-25.40303 -0.0018,-25.40302 -0.924533,-0.62897 c -1.259696,-0.85698 -2.927671,-3.43019 -3.276391,-5.05452 -0.40677,-1.89473 -0.365222,-7.828992 0.06481,-9.256372 0.347759,-1.154306 7.25719,-11.8090598 8.597971,-13.2585808 0.381541,-0.412485 1.169278,-1.006322 1.750525,-1.319638 l 1.056814,-0.569665 30.471136,-0.07033 c 19.511215,-0.04503 30.820585,0.02367 31.44269,0.191015 2.234817,0.601146 2.968717,1.389327 7.259937,7.796941 2.25241,3.3632878 4.23555,6.5827028 4.40697,7.1542558 0.203,0.676849 0.28036,2.555593 0.22187,5.388246 -0.0857,4.147828 -0.12435,4.419338 -0.83631,5.867708 -0.46941,0.95491 -1.27728,1.98362 -2.17635,2.77124 l -1.42984,1.25259 -0.003,1.71554 -0.003,1.71552 h 22.391262 22.39127 l 1.05681,0.57071 c 2.43261,1.31367 3.68259,3.35543 3.6901,6.02748 0.0114,4.06372 -2.82451,6.73015 -7.15796,6.73015 h -1.6848 v 37.21379 37.213783 h 1.6841 c 3.03247,0 5.0808,1.11961 6.39575,3.4959 0.64418,1.1641 0.76656,1.68342 0.76221,3.23426 -0.008,2.67204 -1.25748,4.7138 -3.6901,6.02748 l -1.05681,0.57071 -62.352044,0.0444 c -34.293624,0.0244 -62.650041,-0.0467 -63.014262,-0.15794 z m 76.290103,-5.52767 c -0.40714,-2.05695 0.29213,-4.04984 2.00466,-5.71324 1.55787,-1.51317 2.76226,-1.97392 5.15987,-1.97392 h 1.62062 v -17.36945 c 0,-17.083663 -0.009,-17.378903 -0.53572,-17.943883 -0.29464,-0.31593 -0.79993,-0.63845 -1.12286,-0.71671 -0.32293,-0.0782 -19.05537,-0.10937 -41.627643,-0.0691 l -41.040499,0.0731 -0.637613,0.74051 -0.637615,0.74052 v 20.987833 20.98782 l 0.772288,0.77148 0.772287,0.77148 h 37.763419 37.763426 z m 48.700222,0.5149 c 0.8243,-0.82344 0.96047,-1.54953 0.46492,-2.47899 -0.67154,-1.25956 0.0623,-1.21903 -22.23631,-1.2279 l -21.090562,-0.008 -0.8032,0.80236 c -0.67158,0.67088 -0.77653,0.94117 -0.64047,1.64954 0.0895,0.46597 0.46672,1.11442 0.83826,1.44103 l 0.67552,0.59384 h 21.009782 21.00977 z M 122.66574,85.408677 V 48.194887 H 109.05926 95.452778 v 37.21379 37.213783 h 13.606482 13.60648 z m -19.57139,20.606653 c -0.46557,-0.46509 -0.77229,-1.04966 -0.77229,-1.47191 0,-0.42225 0.30672,-1.00681 0.77229,-1.4719 l 0.77229,-0.77148 h 5.05757 c 3.33828,0 5.25373,0.10438 5.63465,0.30704 0.82088,0.43675 1.21949,1.03629 1.22919,1.84878 0.0251,2.09728 -0.66349,2.33095 -6.86809,2.33095 h -5.05332 z m 0,-8.973543 c -0.82429,-0.82343 -0.96046,-1.54953 -0.46492,-2.47898 0.6225,-1.16756 0.89581,-1.21913 6.50789,-1.22791 5.34596,-0.008 5.36409,-0.006 6.01063,0.63943 0.7128,0.71205 0.86436,2.08462 0.30984,2.8061 -0.70635,0.91905 -1.42621,1.03285 -6.53358,1.03285 h -5.05757 z m 0.55672,-8.53967 c -1.42793,-0.72179 -1.6839,-2.47499 -0.52966,-3.62802 0.48558,-0.48507 0.89726,-0.52113 5.94985,-0.52113 5.411,0 5.43025,0.002 6.07669,0.64782 0.90901,0.90806 0.86159,2.08311 -0.12378,3.06747 l -0.77229,0.77148 -4.97414,-0.004 c -3.4475,-0.003 -5.17442,-0.10513 -5.62667,-0.33373 z m 0.0864,-8.88962 c -1.4407,-0.60116 -1.84796,-2.50525 -0.76684,-3.58524 0.64654,-0.64587 0.66496,-0.64782 6.08869,-0.64782 5.42374,0 5.44215,0.002 6.08869,0.64782 0.83961,0.83872 0.84407,1.99863 0.0114,2.96645 l -0.63709,0.74053 -5.10934,0.0573 c -2.81013,0.0315 -5.36411,-0.0491 -5.67551,-0.17899 z m -1.43604,-9.58388 c -0.49029,-0.33007 -1.16178,-1.00085 -1.49218,-1.49064 -0.57955,-0.85907 -0.60075,-1.09502 -0.60075,-6.68398 0,-6.59796 0.12592,-7.14013 1.93657,-8.33812 1.04554,-0.69177 1.13902,-0.70353 6.26529,-0.78764 5.89686,-0.0968 7.05149,0.0942 8.33728,1.37863 1.28579,1.28445 1.47693,2.43788 1.38008,8.32857 -0.0842,5.12091 -0.096,5.2143 -0.78846,6.25875 -1.19926,1.80875 -1.74199,1.93455 -8.34685,1.93455 -5.5948,0 -5.83099,-0.0213 -6.69098,-0.60012 z m 11.24936,-8.24145 v -4.48678 h -4.49147 -4.49146 l -0.073,4.21225 c -0.0401,2.31673 -0.0131,4.36836 0.0602,4.55916 0.10433,0.27159 1.09535,0.3312 4.5645,0.27452 l 4.43125,-0.0724 z M 90.897268,48.320277 c -0.0375,-0.0299 -1.04886,-0.11857 -2.24767,-0.19692 l -2.17968,-0.14248 v 16.99837 16.99837 l 1.38707,0.0312 c 0.76288,0.0172 1.74374,0.10744 2.17967,0.20057 l 0.79261,0.16933 0.068,-17.00201 c 0.0373,-9.35111 0.0373,-17.02651 0,-17.05645 z m -72.063467,8.31101 v -25.34634 l -0.550442,0.29428 c -0.302742,0.16186 -1.283598,0.44368 -2.179679,0.62627 l -1.629238,0.33197 -0.0674,24.72007 -0.0674,24.72008 h 2.247084 2.247086 z m 11.360753,22.45612 c 0,-3.44976 0.311414,-5.10777 1.390453,-7.40296 0.946161,-2.01256 3.918388,-5.12648 5.673962,-5.94446 0.615909,-0.28697 1.121198,-0.59574 1.122865,-0.68617 0.0095,-0.513 -1.128825,-2.58464 -1.7263,-3.14181 -2.363085,-2.20366 -2.556622,-6.21759 -0.429808,-8.91409 0.682584,-0.86542 0.783024,-1.23178 0.885896,-3.23145 0.09396,-1.82652 0.275171,-2.59508 0.952998,-4.04205 1.015657,-2.16815 3.115428,-4.31504 5.169931,-5.28596 7.788464,-3.68068 16.286599,1.88331 16.286599,10.66335 0,0.8441 0.142646,1.36916 0.438351,1.61352 0.868428,0.71761 1.669985,2.92157 1.672696,4.59923 0.0028,1.75696 -0.879718,3.94578 -1.936047,4.80155 -0.314217,0.25456 -0.833271,1.01877 -1.153452,1.69824 l -0.582146,1.2354 1.506859,0.84912 c 1.910231,1.07642 4.212958,3.4527 5.162435,5.32735 1.156902,2.28419 1.489806,3.96029 1.493257,7.51828 l 0.0031,3.23312 h 3.434646 3.434646 v -25.3332 -25.33319 l -1.330798,0.52401 c -2.78279,1.09572 -6.662791,0.47473 -8.853495,-1.417 l -1.014954,-0.87645 -1.335722,1.01025 c -1.725621,1.30517 -3.244617,1.80719 -5.468028,1.80719 -2.178952,0 -4.223886,-0.70459 -5.670379,-1.95374 l -1.029657,-0.88919 -0.924713,0.72652 c -2.105009,1.65387 -3.095282,1.98445 -5.944579,1.98445 -2.927677,0 -4.165757,-0.43379 -5.87853,-2.05968 l -0.858661,-0.81511 -0.858662,0.81511 c -2.509068,2.38179 -6.166329,2.84354 -10.039736,1.26758 -0.438438,-0.17839 -0.462356,1.12404 -0.462356,25.17716 v 25.36529 h 3.434646 3.434647 z m 31.440225,-0.24373 c 0,-2.07245 -0.13061,-3.50376 -0.385611,-4.22575 -0.859758,-2.43427 -2.917159,-4.54775 -5.31911,-5.46411 -1.115589,-0.4256 -1.127948,-0.42366 -2.920268,0.45777 -1.726418,0.84903 -1.924277,0.88518 -4.843837,0.88518 -2.913738,0 -3.116683,-0.0369 -4.746045,-0.86209 l -1.702148,-0.8621 -1.273191,0.42244 c -1.721593,0.57123 -3.953283,2.64882 -4.888205,4.55067 -0.668469,1.35983 -0.746998,1.81984 -0.83083,4.86685 l -0.09259,3.36508 H 48.13386 61.634774 Z m 20.343679,-21.67525 v -24.8092 l -0.858666,-0.0116 c -0.761031,-0.0103 -1.673421,-0.27063 -3.170443,-0.90475 -0.438491,-0.18574 -0.462357,1.11337 -0.462357,25.16943 v 25.36529 h 2.245731 2.245735 z m -30.695786,8.26023 c 1.608352,-0.75857 3.02585,-2.47351 3.45815,-4.1838 0.179135,-0.70871 0.630537,-1.39303 1.336495,-2.02613 1.280777,-1.14858 1.44494,-2.37257 0.470058,-3.50474 -0.499599,-0.58022 -0.934728,-0.73412 -2.691561,-0.95201 -1.152591,-0.14294 -2.736095,-0.4759 -3.5189,-0.73989 l -1.423282,-0.48 -1.863805,0.95541 c -1.728393,0.88599 -2.048486,0.95871 -4.405724,1.00095 -1.398054,0.025 -2.612001,0.0548 -2.697659,0.0659 -0.250443,0.0328 -0.768969,1.31668 -0.768969,1.90389 0,0.29643 0.51208,1.03613 1.137954,1.64378 0.768668,0.74628 1.250365,1.5059 1.484359,2.34076 0.62263,2.2215 2.828579,4.24045 5.088268,4.65694 1.552607,0.28617 2.730884,0.10354 4.394616,-0.68114 z m -7.083163,-14.50255 c 0.528437,-0.10558 1.27176,-0.60821 1.925048,-1.3017 1.48241,-1.57365 1.934808,-1.6233 4.298806,-0.47177 1.164689,0.56734 2.545601,1.02303 3.327591,1.09809 l 1.336709,0.1283 -0.193331,-0.89412 c -0.432635,-2.00087 -1.931174,-4.00981 -3.655476,-4.90055 -0.455682,-0.23541 -1.606729,-0.48362 -2.557881,-0.55161 -1.393793,-0.0996 -1.996156,-0.009 -3.104288,0.46726 -2.315885,0.99523 -4.02138,3.35945 -4.02138,5.57461 0,0.98652 0.0322,1.02348 0.891687,1.02348 0.490428,0 1.27906,-0.0774 1.752515,-0.17199 z m 86.415301,-7.55629 c 1.21205,-0.92961 1.31976,-2.31995 0.26163,-3.37698 l -0.77229,-0.77149 H 109.09438 88.084598 l -0.67552,0.59384 c -0.37154,0.32662 -0.74875,0.97508 -0.83826,1.44103 -0.13606,0.70837 -0.0311,0.97867 0.64047,1.64955 l 0.8032,0.80236 21.090562,-0.008 c 16.16243,-0.006 21.18851,-0.0835 21.50976,-0.32991 z M 16.722799,27.278637 c 1.746812,-1.18763 1.969579,-1.75138 2.067018,-5.2309 l 0.08817,-3.148806 H 14.3644 9.850812 l 0.0058,2.705266 c 0.0078,3.64581 0.790458,5.28582 2.900436,6.07784 1.037067,0.38928 3.109971,0.17842 3.965741,-0.4034 z m 13.492388,-0.006 c 1.852121,-1.24684 2.49936,-3.11252 2.309736,-6.657891 l -0.0847,-1.583566 -4.586228,-0.07234 -4.586228,-0.07234 0.0998,2.975547 c 0.0795,2.37037 0.206243,3.15447 0.623174,3.85535 1.211987,2.03738 4.345298,2.82027 6.224446,1.55523 z m 13.49682,0.0164 c 1.763299,-0.99 2.18471,-1.98608 2.295942,-5.42692 l 0.09619,-2.975546 -4.586228,0.07234 -4.586228,0.07234 -0.0847,1.583566 c -0.189624,3.54537 0.457615,5.41105 2.309736,6.65789 1.197303,0.80602 3.136377,0.81297 4.555285,0.0164 z m 13.935634,-0.1909 c 1.402268,-0.99747 1.860897,-2.34649 1.867647,-5.49358 l 0.0058,-2.705267 h -4.49146 -4.491462 v 2.996137 c 0,3.3682 0.317645,4.17739 2.119917,5.4004 1.232882,0.83663 3.671285,0.74002 4.989556,-0.19769 z m 12.969462,0.37907 c 0.421206,-0.21759 1.098931,-0.8314 1.50605,-1.36403 0.69888,-0.91433 0.745142,-1.14282 0.828394,-4.09115 l 0.08817,-3.122737 h -4.53571 -4.535714 l 0.08817,3.101147 c 0.0787,2.76763 0.156049,3.19621 0.719243,3.98503 0.940814,1.31772 2.046523,1.88523 3.675362,1.88637 0.770103,5.3e-4 1.744814,-0.17704 2.166023,-0.39463 z m 13.741805,-0.19821 c 1.74681,-1.18763 1.96958,-1.75138 2.06702,-5.2309 l 0.0882,-3.148807 h -4.51359 -4.513585 l 0.0058,2.705257 c 0.0078,3.64582 0.790457,5.28583 2.900437,6.07784 1.037068,0.38929 3.109968,0.17842 3.965738,-0.40339 z M 21.941847,10.055302 c 1.196781,-2.3962728 2.175965,-4.4153198 2.175965,-4.4867688 0,-0.256768 -5.594519,-0.123757 -6.09715,0.144963 -0.392168,0.209662 -4.565972,6.1386338 -5.891334,8.3687568 -0.153269,0.257899 0.658764,0.329909 3.720245,0.329909 h 3.916309 z m 12.496847,0.200001 c 0.760003,-2.2862718 1.436493,-4.3053178 1.503316,-4.4867678 0.09322,-0.253126 -0.669957,-0.32991 -3.279081,-0.32991 h -3.400577 l -2.175965,4.356861 c -1.19678,2.3962728 -2.175965,4.4153178 -2.175965,4.4867688 0,0.07145 1.832953,0.129907 4.073227,0.129907 h 4.073226 z m 12.003926,3.299095 c 0.08561,-0.471771 0.429341,-2.490817 0.763849,-4.4867688 l 0.608197,-3.629004 h -3.504087 -3.504085 l -1.381819,4.156859 c -0.760002,2.2862728 -1.436493,4.3053178 -1.503315,4.4867688 -0.094,0.255271 0.838553,0.329909 4.122056,0.329909 h 4.243551 z M 59.52109,9.9253942 v -4.486769 h -3.554777 -3.554774 l -0.155654,0.857764 c -0.08561,0.471771 -0.429341,2.490817 -0.763849,4.4867698 l -0.608197,3.629003 h 4.318627 4.318624 z m 13.474381,0 v -4.486769 h -4.49146 -4.49146 v 4.486769 4.4867678 h 4.49146 4.49146 z m 11.360757,4.3484898 c 0,-0.07605 -1.18402,-1.906782 -2.63114,-4.068286 -2.362289,-3.5284388 -3.410057,-4.7669728 -4.03274,-4.7669728 -0.112978,0 -0.205415,2.019046 -0.205415,4.486769 v 4.4867678 h 3.434646 c 1.889059,0 3.434649,-0.06223 3.434649,-0.138278 z"
           id="path125"
           sodipodi:nodetypes="ssscsscccssssscsssscsscccccssscccsscscsssssscsccccccccccccscsccssscccccccccccccssscsssscsssccsscscsscsccccsssssccssssssssssssccccsssccsscccssccssccsscccccccsssssssssscsscssccccccsscssscssscsssccccsssssccssscccsccssscccccssssscsscssssccsssscssscssscscccsscccccsscccsssssscccsssscscccssccsscccssssssscccssssssscccssssssssscsssscssscssscccssscsccccsscccccccccccccsssscss" /><path
           style="fill:#000000;stroke-width:0.0526622"
           d="m 46.858307,129.01495 c -0.484934,-0.14179 -0.794862,-0.35196 -1.182183,-0.80164 -0.284437,-0.33023 -0.597096,-1.05673 -0.662542,-1.53947 -0.03096,-0.22838 -0.04979,-2.5423 -0.05002,-6.14763 l -3.72e-4,-5.78141 -0.676827,-0.0386 c -4.699874,-0.26795 -8.732059,-2.35592 -11.978361,-6.20273 -2.890879,-3.42564 -4.60882,-8.05316 -4.801195,-12.932727 l -0.0332,-0.84215 h 3.01162 c 2.357532,0 3.167331,0.0187 3.728558,0.0862 3.54827,0.42649 6.795808,2.02021 9.568035,4.69547 0.529486,0.510967 1.824101,2.025997 2.244948,2.627157 1.903842,2.71958 3.141797,5.78653 3.661402,9.07087 0.264169,1.66979 0.26063,1.5623 0.281941,8.56327 0.0143,4.70315 0.0042,6.63779 -0.03581,6.90175 -0.08686,0.57193 -0.308034,1.03999 -0.708713,1.4998 -0.672353,0.77157 -1.545576,1.0821 -2.367284,0.84184 z m 4.851464,-20.32613 c -0.230845,-1.04532 -0.779288,-2.67626 -1.331561,-3.95972 -0.782907,-1.81945 -1.701383,-3.38461 -2.969197,-5.059747 l -0.236874,-0.31298 0.305333,-0.58141 c 2.629387,-5.00677 7.07338,-8.4795 12.055963,-9.42107 1.265646,-0.23917 1.644184,-0.25936 4.861327,-0.25936 h 3.078841 l -0.03323,0.84284 c -0.194342,4.92944 -1.915343,9.50549 -4.902393,13.035207 -1.458372,1.72332 -2.948871,2.964 -4.850438,4.03746 -1.86298,1.05169 -3.506623,1.61302 -5.687949,1.94251 l -0.224109,0.0338 z"
           id="path240" /></g></g></g></svg>
