<?xml version="1.0" encoding="UTF-8" standalone="no"?>
<!-- Created with Inkscape (http://www.inkscape.org/) -->

<svg
   width="102mm"
   height="122mm"
   viewBox="0 0 102 122"
   version="1.1"
   id="svg5"
   xml:space="preserve"
   inkscape:version="1.2.1 (9c6d41e410, 2022-07-14)"
   sodipodi:docname="huertas.svg"
   inkscape:export-filename="..\png\huertas.png"
   inkscape:export-xdpi="96"
   inkscape:export-ydpi="96"
   xmlns:inkscape="http://www.inkscape.org/namespaces/inkscape"
   xmlns:sodipodi="http://sodipodi.sourceforge.net/DTD/sodipodi-0.dtd"
   xmlns="http://www.w3.org/2000/svg"
   xmlns:svg="http://www.w3.org/2000/svg"><sodipodi:namedview
     id="namedview7"
     pagecolor="#ffffff"
     bordercolor="#111111"
     borderopacity="1"
     inkscape:showpageshadow="0"
     inkscape:pageopacity="0"
     inkscape:pagecheckerboard="1"
     inkscape:deskcolor="#d1d1d1"
     inkscape:document-units="mm"
     showgrid="false"
     inkscape:zoom="1.5393939"
     inkscape:cx="206.89961"
     inkscape:cy="252.37205"
     inkscape:window-width="1920"
     inkscape:window-height="1051"
     inkscape:window-x="-9"
     inkscape:window-y="-9"
     inkscape:window-maximized="1"
     inkscape:current-layer="layer1" /><defs
     id="defs2" /><g
     inkscape:label="Capa 1"
     inkscape:groupmode="layer"
     id="layer1"><g
       id="g874"
       transform="matrix(0.94018101,0,0,0.95439572,-37.5533,-77.466925)"><path
         style="fill:#000000;stroke-width:0.0921589"
         d="m 93.110707,207.81119 c -0.84863,-0.24814 -1.39101,-0.61592 -2.06882,-1.40286 -0.49777,-0.57791 -1.04492,-1.84928 -1.15945,-2.69408 -0.0542,-0.39965 -0.0871,-4.44902 -0.0875,-10.75836 l -6.5e-4,-10.11749 -1.18445,-0.0676 c -8.224777,-0.4689 -15.281102,-4.12286 -20.962131,-10.85478 -5.059038,-5.99488 -8.065436,-14.09306 -8.402092,-22.6323 l -0.0581,-1.47377 h 5.270336 c 4.12568,0 5.542829,0.0328 6.524977,0.1508 6.209474,0.74638 11.892666,3.53538 16.74406,8.21711 0.92661,0.89419 3.19218,3.54549 3.92866,4.59753 3.33173,4.75926 5.49815,10.12644 6.40746,15.87404 0.4623,2.92213 0.4561,2.73401 0.4934,14.98573 0.025,8.23052 0.008,11.61616 -0.0627,12.07808 -0.152,1.00089 -0.53906,1.82 -1.24025,2.62466 -1.17662,1.35025 -2.70476,1.89368 -4.14275,1.47321 z m 8.490073,-35.57074 c -0.40398,-1.82933 -1.36376,-4.68347 -2.330243,-6.92954 -1.37008,-3.18404 -2.97742,-5.92307 -5.19609,-8.85457 l -0.41453,-0.54771 0.53433,-1.01746 c 4.60143,-8.76187 12.378423,-14.83917 21.097943,-16.4869 2.21487,-0.41855 2.87732,-0.4539 8.50732,-0.4539 h 5.38798 l -0.0582,1.47498 c -0.34009,8.62654 -3.35184,16.63463 -8.57918,22.81165 -2.55216,3.01581 -5.16054,5.18699 -8.48828,7.06556 -3.2602,1.84046 -6.13658,2.82278 -9.95391,3.3994 l -0.39219,0.0592 z"
         id="path316" /><path
         style="fill:#000000;stroke-width:0.264583"
         d="m 44.647989,207.77129 c -1.391006,-0.42155 -2.546542,-1.34683 -3.093797,-2.4773 -0.545704,-1.12728 -0.547939,-1.27421 -0.547939,-36.02212 0,-34.20708 0.01023,-34.91128 0.522706,-35.96594 0.353549,-0.7276 8.55202,-9.09211 25.333852,-25.84692 23.614641,-23.57662 24.871756,-24.78576 26.067918,-25.07308 0.941359,-0.226117 1.572183,-0.226117 2.513542,0 1.196162,0.28732 2.453277,1.49646 26.067919,25.07308 16.78183,16.75481 24.9803,25.11932 25.33385,25.84692 0.51247,1.05466 0.52271,1.75886 0.52271,35.96594 0,34.8824 -1.3e-4,34.89048 -0.55458,36.03583 -0.38513,0.79556 -0.93083,1.36679 -1.78594,1.86947 l -1.23136,0.72387 -49.212495,0.0448 c -27.066874,0.0246 -49.538247,-0.0539 -49.936386,-0.17457 z M 137.84375,167.88221 V 137.52067 L 116.01562,115.69375 94.1875,93.86683 72.359376,115.69375 50.531252,137.52067 v 30.36154 30.36154 H 94.1875 137.84375 Z"
         id="path314" /></g></g></svg>
