<?xml version="1.0" encoding="UTF-8" standalone="no"?>
<!-- Created with Inkscape (http://www.inkscape.org/) -->

<svg
   width="137mm"
   height="102mm"
   viewBox="0 0 137 102"
   version="1.1"
   id="svg5"
   xml:space="preserve"
   inkscape:version="1.2.1 (9c6d41e410, 2022-07-14)"
   sodipodi:docname="menu.svg"
   inkscape:export-filename="..\png\menu.png"
   inkscape:export-xdpi="96"
   inkscape:export-ydpi="96"
   xmlns:inkscape="http://www.inkscape.org/namespaces/inkscape"
   xmlns:sodipodi="http://sodipodi.sourceforge.net/DTD/sodipodi-0.dtd"
   xmlns="http://www.w3.org/2000/svg"
   xmlns:svg="http://www.w3.org/2000/svg"><sodipodi:namedview
     id="namedview7"
     pagecolor="#ffffff"
     bordercolor="#111111"
     borderopacity="1"
     inkscape:showpageshadow="0"
     inkscape:pageopacity="0"
     inkscape:pagecheckerboard="1"
     inkscape:deskcolor="#d1d1d1"
     inkscape:document-units="mm"
     showgrid="false"
     inkscape:zoom="0.76969697"
     inkscape:cx="205.9252"
     inkscape:cy="146.16142"
     inkscape:window-width="1920"
     inkscape:window-height="1051"
     inkscape:window-x="-9"
     inkscape:window-y="-9"
     inkscape:window-maximized="1"
     inkscape:current-layer="layer1" /><defs
     id="defs2" /><g
     inkscape:label="Capa 1"
     inkscape:groupmode="layer"
     id="layer1"><path
       style="fill:#000000;stroke-width:0.264884"
       d="m 133.22198,91.46319 c -3.32062,4.32064 -4.23757,5.26844 -6.30245,6.51445 -3.03797,1.83319 -5.723,2.315 -10.54824,1.89282 -2.04666,-0.17907 -2.83165,-0.11276 -5.70281,0.48176 -4.13947,0.85713 -5.49347,0.86082 -9.39338,0.0256 -3.858271,-0.82631 -4.714101,-0.82631 -8.572371,0 -3.87228,0.8293 -5.324315,0.82876 -9.288793,-0.004 -3.921849,-0.82328 -4.560374,-0.82313 -8.576311,0.002 -4.038053,0.82977 -5.3943,0.82947 -9.355687,-0.002 -3.922877,-0.8235 -4.576203,-0.82334 -8.525092,0.002 -3.980953,0.83215 -5.351183,0.83215 -9.332126,0 -3.94889,-0.82545 -4.602216,-0.82561 -8.525092,-0.002 -3.964567,0.83225 -5.316977,0.83202 -9.373608,-0.002 -2.936349,-0.6034 -3.630329,-0.65218 -7.090395,-0.49849 -3.680683,0.16348 -3.91878,0.14195 -5.899718,-0.53353 C 15.600575,98.95266 14.057888,98.23684 13.307734,97.74908 11.788689,96.76139 9.657092,94.58062 8.52783,92.8589 L 7.786268,91.72829 H 4.393139 1.00001 v -3.99102 -3.99102 h 3.384338 3.384348 l 1.001438,-1.46706 c 1.366024,-2.00119 3.824035,-4.23993 5.70959,-5.20028 2.723019,-1.38689 4.361138,-1.66885 8.539723,-1.46991 3.340415,0.15904 3.993133,0.11167 6.856345,-0.49757 3.950325,-0.84055 5.060301,-0.84205 9.097855,-0.0124 4.022585,0.82661 4.903773,0.82647 8.76919,-0.001 1.704717,-0.36512 3.751297,-0.66382 4.547946,-0.66382 0.796639,0 2.843219,0.2987 4.547946,0.66379 3.865417,0.82784 4.746605,0.82797 8.769189,0.001 4.019834,-0.82602 5.12992,-0.82636 9.097856,-0.003 3.970278,0.82415 4.851905,0.82442 8.782924,0.003 3.964926,-0.82879 5.186361,-0.82851 9.143191,0.002 3.93093,0.82519 4.78312,0.82519 8.714041,0 3.96399,-0.83213 5.17863,-0.83129 9.17469,0.006 2.91824,0.61171 3.56505,0.65746 7.03735,0.49769 4.34173,-0.19979 6.08117,0.10026 8.67252,1.49613 2.31088,1.24477 3.66804,2.5847 6.84153,6.75471 1.61994,2.12864 2.93752,3.90266 2.92794,3.94226 -0.01,0.0396 -1.25967,1.68838 -2.77798,3.66393 z m -0.003,-36.71735 c -3.29683,4.30317 -4.22402,5.26199 -6.29961,6.51445 -3.03959,1.83418 -5.19957,2.23386 -10.15268,1.87866 -2.43671,-0.17475 -3.16802,-0.11556 -6.09549,0.49338 -4.1196,0.8569 -5.3455,0.86014 -9.32543,0.0246 -3.901811,-0.81908 -4.741351,-0.81861 -8.708171,0.005 -3.96589,0.82324 -5.282537,0.82255 -9.223822,-0.005 -3.926125,-0.82418 -4.780203,-0.82384 -8.643209,0.004 -3.878972,0.83073 -5.234272,0.83053 -9.214029,-10e-4 -1.750166,-0.36584 -3.68431,-0.66517 -4.298097,-0.66517 -0.613788,0 -2.57262,0.29933 -4.352975,0.66517 -1.780346,0.36584 -3.857025,0.66517 -4.614844,0.66517 -0.757828,0 -2.834507,-0.29933 -4.614843,-0.66517 -4.019554,-0.82598 -4.699651,-0.82598 -8.651072,0 -3.990282,0.8341 -5.322718,0.83247 -9.283797,-0.0114 -2.873229,-0.61208 -3.520485,-0.65949 -6.79463,-0.4977 -2.900588,0.14334 -3.944684,0.0942 -5.260356,-0.24748 C 14.127726,61.97922 11.1183,59.8144 8.84347,56.54253 L 7.779929,55.01268 H 4.389959 1 v -3.99102 -3.99102 h 3.384338 3.384348 l 0.97982,-1.4354 c 2.209657,-3.23706 5.389625,-5.53383 8.937569,-6.45527 1.312652,-0.34092 2.359827,-0.39081 5.227435,-0.24912 3.218779,0.15903 3.924211,0.10808 6.889484,-0.4977 4.113562,-0.84036 5.242385,-0.84155 9.221863,-0.0101 1.750166,0.36584 3.68431,0.66517 4.298098,0.66517 0.613787,0 2.572619,-0.29933 4.352974,-0.66517 1.780336,-0.36584 3.857016,-0.66517 4.614844,-0.66517 0.757818,0 2.834498,0.29933 4.614843,0.66517 1.780356,0.36584 3.739188,0.66517 4.352975,0.66517 0.613788,0 2.547932,-0.29933 4.298098,-0.66517 3.956325,-0.827 5.176325,-0.82735 9.149075,-0.003 3.96681,0.82342 4.806346,0.82388 8.708162,0.005 3.941285,-0.82735 5.257933,-0.82805 9.223823,-0.005 3.96682,0.82342 4.80636,0.82388 8.708171,0.005 3.95533,-0.83031 5.27204,-0.82947 9.22383,0.006 2.86769,0.60616 3.52308,0.65264 6.98821,0.49557 3.10618,-0.14079 4.1398,-0.0912 5.50805,0.26408 2.0782,0.53968 4.42322,1.77834 5.97372,3.15536 0.96479,0.85685 7.03237,8.50887 6.95446,8.77049 -0.0128,0.0428 -1.26153,1.69419 -2.77507,3.66974 z m 0.0138,-36.71736 c -3.09468,4.05967 -4.75601,5.70423 -6.95924,6.88906 -2.63853,1.41893 -4.35875,1.71855 -8.71572,1.51807 -3.4723,-0.15977 -4.11911,-0.11403 -7.03735,0.49768 -3.99606,0.83763 -5.21069,0.83848 -9.17469,0.006 -3.930921,-0.82518 -4.783111,-0.82518 -8.714041,0 -3.95683,0.83064 -5.178265,0.83092 -9.143191,0.002 -3.931019,-0.82172 -4.812645,-0.82145 -8.782923,0.003 -3.967937,0.82366 -5.078023,0.82333 -9.097856,-0.003 -3.997777,-0.82151 -4.864842,-0.82124 -8.834143,0.003 -1.740459,0.36129 -3.757806,0.65688 -4.482993,0.65688 -0.725196,0 -2.742543,-0.29559 -4.482992,-0.65688 -3.969301,-0.82393 -4.836366,-0.82421 -8.834143,-0.003 -4.037554,0.82968 -5.147531,0.82816 -9.097856,-0.0124 -2.863212,-0.60924 -3.51593,-0.65661 -6.856344,-0.49757 -2.952834,0.14059 -4.020481,0.0908 -5.333363,-0.24856 -3.499953,-0.90474 -6.592482,-3.12243 -8.817897,-6.3234 L 7.779759,18.29413 H 4.389969 1.00001 V 14.30311 10.3121 h 3.384338 3.384348 l 0.97982,-1.4354 c 2.209657,-3.23706 5.389625,-5.53384 8.937569,-6.45528 1.309143,-0.34 2.362249,-0.39093 5.201511,-0.25155 3.187613,0.15647 3.901746,0.1044 6.826683,-0.4977 4.067695,-0.83734 5.417612,-0.83809 9.385349,-0.005 3.922876,0.8235 4.576202,0.82334 8.525092,-0.002 C 49.374876,1.29933 51.474609,1 52.290783,1 c 0.816164,0 2.915897,0.29933 4.666063,0.66517 3.948889,0.82545 4.602215,0.82561 8.525092,0.002 3.961387,-0.83158 5.317634,-0.83189 9.355687,-0.002 4.015937,0.82524 4.654462,0.8254 8.576311,0.002 3.964478,-0.83223 5.416513,-0.83277 9.288793,-0.003 3.83436,0.82118 4.67552,0.82105 8.637321,-10e-4 3.99268,-0.82879 5.21128,-0.82539 9.32843,0.0262 2.88923,0.59755 3.6607,0.66157 5.83466,0.48414 3.41634,-0.27883 5.29608,-0.16653 7.2124,0.43088 1.86124,0.58026 4.38405,2.03534 5.66826,3.2693 0.79732,0.76614 6.66585,8.29949 6.6104,8.48569 -0.0128,0.0428 -1.25532,1.69418 -2.76128,3.66973 z"
       id="path1528" /></g></svg>
