<?xml version="1.0" encoding="UTF-8" standalone="no"?>
<!-- Created with Inkscape (http://www.inkscape.org/) -->

<svg
   width="147mm"
   height="147mm"
   viewBox="0 0 147 147"
   version="1.1"
   id="svg5"
   xml:space="preserve"
   inkscape:version="1.2.1 (9c6d41e410, 2022-07-14)"
   sodipodi:docname="pedidos.svg"
   inkscape:export-filename="..\png\pedidos.png"
   inkscape:export-xdpi="96"
   inkscape:export-ydpi="96"
   xmlns:inkscape="http://www.inkscape.org/namespaces/inkscape"
   xmlns:sodipodi="http://sodipodi.sourceforge.net/DTD/sodipodi-0.dtd"
   xmlns="http://www.w3.org/2000/svg"
   xmlns:svg="http://www.w3.org/2000/svg"><sodipodi:namedview
     id="namedview7"
     pagecolor="#ffffff"
     bordercolor="#111111"
     borderopacity="1"
     inkscape:showpageshadow="0"
     inkscape:pageopacity="0"
     inkscape:pagecheckerboard="1"
     inkscape:deskcolor="#d1d1d1"
     inkscape:document-units="mm"
     showgrid="false"
     inkscape:zoom="0.76969697"
     inkscape:cx="170.84646"
     inkscape:cy="383.91732"
     inkscape:window-width="1920"
     inkscape:window-height="1051"
     inkscape:window-x="-9"
     inkscape:window-y="-9"
     inkscape:window-maximized="1"
     inkscape:current-layer="layer1" /><defs
     id="defs2" /><g
     inkscape:label="Capa 1"
     inkscape:groupmode="layer"
     id="layer1"><path
       style="fill:#000000;stroke-width:0.283573"
       d="m 2.7159405,145.81482 c -0.312104,-0.12809 -0.8228194,-0.51641 -1.1349233,-0.86293 -0.5611655,-0.62305 -0.5674616,-1.029 -0.5674616,-36.58768 V 72.406566 l 0.7549976,-0.75416 c 0.5584573,-0.55784 1.1308763,-0.79024 2.1989133,-0.89275 0.794155,-0.0762 1.443917,-0.25197 1.443917,-0.39055 0,-0.13859 -0.569998,-2.51368 -1.266661,-5.278 -3.73553358,-14.82234 -4.01319838,-19.46734 -1.520252,-25.43197 2.224123,-5.32146 7.104016,-9.91222 13.0012225,-12.23092 1.511224,-0.59418 1.559426,-0.64651 1.525899,-1.65643 -0.04901,-1.47634 -2.317941,-5.864158 -4.192072,-8.106926 -0.860242,-1.029449 -2.646161,-2.781931 -3.9687105,-3.894404 -2.557534,-2.151292 -2.883838,-2.669215 -2.607768,-4.1391611 0.22612,-1.203988 0.98872,-1.870273 2.340157,-2.0446 1.4308195,-0.184567 3.0804135,0.894084 6.3855515,4.1754391 l 2.462231,2.444514 0.09135,-5.7607911 0.09135,-5.760792 0.785898,-0.785261 c 0.771174,-0.770549 0.858885,-0.787027 4.681559,-0.879562 4.278625,-0.10357104 5.806481,0.176199 6.373674,1.167104 0.23834,0.41638 0.407052,2.410506 0.50116,5.923451 l 0.141865,5.2957571 1.661111,-1.116066 c 1.87874,-1.262285 4.314022,-2.078214 5.394381,-1.807361 1.219069,0.305628 2.16576,1.478783 2.16576,2.683848 0,1.405885 -0.655941,2.152348 -2.576489,2.93205 -2.072299,0.841311 -3.448288,1.915133 -4.514614,3.523207 -1.536732,2.317474 -2.58672,6.858044 -1.585893,6.858044 0.221315,0 0.596757,0.0745 0.834313,0.16556 0.309218,0.11853 0.648104,-0.26058 1.192897,-1.33448 3.591968,-7.080543 11.261234,-11.838057 19.133941,-11.869453 l 2.411713,-0.0096 1.044765,-1.765922 C 59.67897,4.4333519 68.278096,0.19367786 76.564247,1.2315209 c 7.779,0.974322 14.654782,6.032873 17.648412,12.9840331 l 0.62922,1.461049 1.60382,0.168301 c 4.061371,0.426195 6.978111,1.310243 9.435661,2.859902 1.01722,0.64143 1.17848,0.667213 1.88917,0.30203 3.13092,-1.608811 8.52986,-2.141697 11.88655,-1.173225 2.36435,0.682157 5.1546,2.214923 6.9631,3.825015 4.66004,4.14882 6.65556,11.30299 4.81186,17.2511 -0.3554,1.14661 -0.60649,2.1143 -0.55797,2.15044 0.0486,0.0362 0.82445,0.54658 1.7243,1.13433 3.24203,2.11755 6.20579,6.48476 6.99214,10.30318 1.30086,6.31682 -1.2101,13.1158 -6.23821,16.89132 l -1.69662,1.27394 6.38604,0.086 6.38602,0.086 0.78614,0.78583 0.78613,0.78584 v 35.980954 35.98096 l -0.78669,0.78584 -0.7867,0.78583 -70.571608,0.0538 c -38.81439,0.0295 -70.8269695,-0.051 -71.1390735,-0.1791 z M 140.46725,131.62764 v -8.7859 H 95.477269 c -32.576912,0 -45.160983,-0.0874 -45.609732,-0.31658 -1.000557,-0.51113 -1.600182,-1.45452 -1.600182,-2.51758 0,-1.06306 0.599625,-2.00645 1.600182,-2.51757 0.448749,-0.22924 13.03282,-0.31659 45.609732,-0.31659 h 44.989981 v -8.77766 -8.777664 l -13.04538,-0.0791 -13.04537,-0.0791 -0.78005,-0.7794 c -0.59087,-0.59036 -0.78006,-1.05435 -0.78006,-1.91305 0,-0.85871 0.18919,-1.3227 0.78006,-1.91306 l 0.78005,-0.7794 13.04537,-0.0791 13.04538,-0.0791 v -8.77766 -8.77766 H 73.50678 6.5463065 v 8.7859 8.7859 H 51.536294 c 32.576909,0 65.908796,0.0874 66.357546,0.31658 2.13471,1.09049 2.13471,3.94466 0,5.03515 -0.44875,0.22924 -33.780637,0.31658 -66.357546,0.31658 H 6.5463065 v 8.777674 8.77765 l 13.0453785,0.0791 32.729205,0.0791 0.78005,0.77939 c 1.088617,1.0877 1.088617,2.73842 0,3.82612 L 52.32089,122.7 19.591685,122.7791 6.5463065,122.8582 v 8.77766 8.77766 H 73.50678 140.46725 Z m -123.30941,1.87055 c -1.415592,-1.41403 -1.220338,-3.24657 0.450991,-4.23274 1.250806,-0.73805 2.205889,-0.59551 3.294256,0.49164 1.416008,1.41444 1.183544,3.43373 -0.495118,4.30085 -1.274115,0.65813 -2.188554,0.50064 -3.250129,-0.55975 z m 108.95264,0 c -1.4156,-1.41403 -1.22034,-3.24657 0.45099,-4.23274 1.12889,-0.66612 2.09231,-0.58709 3.0926,0.25366 2.0988,1.76407 0.90615,4.94269 -1.85456,4.94269 -0.44546,0 -1.09577,-0.37101 -1.68903,-0.96361 z M 17.15784,110.25807 c -1.415592,-1.41402 -1.220338,-3.24656 0.450991,-4.23275 1.250806,-0.73805 2.205889,-0.59551 3.294256,0.49165 1.416008,1.41444 1.183544,3.43374 -0.495118,4.30085 -1.274115,0.65813 -2.188554,0.50065 -3.250129,-0.55975 z m 108.95264,0 c -1.4156,-1.41402 -1.22034,-3.24656 0.45099,-4.23275 1.12889,-0.6661 2.09231,-0.58708 3.0926,0.25367 2.0988,1.76406 0.90615,4.94269 -1.85456,4.94269 -0.44546,0 -1.09577,-0.371 -1.68903,-0.96361 z M 17.15784,87.017956 c -1.415592,-1.41403 -1.220338,-3.24657 0.450991,-4.23275 1.250806,-0.73805 2.205889,-0.59551 3.294256,0.49165 1.416008,1.41444 1.183544,3.43373 -0.495118,4.30084 -1.274115,0.65814 -2.188554,0.50065 -3.250129,-0.55974 z m 108.95264,0 c -1.4156,-1.41403 -1.22034,-3.24657 0.45099,-4.23275 1.12889,-0.66611 2.09231,-0.58709 3.0926,0.25367 2.0988,1.76406 0.90615,4.94269 -1.85456,4.94269 -0.44546,0 -1.09577,-0.37101 -1.68903,-0.96361 z M 34.424071,68.674676 c 0.780601,-3.32245 2.596747,-6.74179 4.980965,-9.37791 l 0.971268,-1.07389 -30.327371,-0.004 c -5.54445,-0.005 -2.891852,-0.13933 -3.690923,-1.76941 -0.504041,-1.02823 -0.504041,-1.09292 0,-2.12115 0.817483,-1.66764 -1.92989,-1.76474 4.617874,-1.76941 6.769261,-0.005 31.468673,0.38466 31.779809,-3.54688 0.646262,-8.16618 -5.476269,-15.55178 -14.352138,-17.31295 -7.076589,-1.40416 -14.681399,1.47169 -18.8013465,7.10997 l -0.828379,1.13367 6.8248735,0.14171 27.99154,0.1417 -0.278694,0.7794 c -0.518005,1.448666 -0.517874,2.377374 -1.82e-4,3.82611 l 0.278512,0.7794 -29.147068,0.0837 -7.9804025,0.0836 0.172884,2.60876 c 0.238655,3.60124 2.007159,12.00069 4.4727895,21.24337 l 0.283522,1.06281 H 22.670716 33.94983 l 0.474241,-2.01851 z m 35.230728,1.23912 c -0.323453,-1.44642 -2.013291,-4.73739 -3.194869,-6.22202 -3.056408,-3.84034 -8.801704,-6.01741 -13.822349,-5.23773 -3.802379,0.59048 -7.418483,2.57657 -9.53642,5.23773 -1.181577,1.48463 -2.871416,4.7756 -3.194868,6.22202 l -0.17429,0.77939 h 15.048543 15.048543 z m 19.167214,-0.14172 c -0.0074,-1.09731 -0.91815,-3.20846 -1.784698,-4.13711 -2.294852,-2.45929 -6.607447,-2.45929 -8.902299,0 -0.866547,0.92865 -1.777272,3.0398 -1.784697,4.13711 l -0.0062,0.92111 h 6.242078 6.242078 l -0.0062,-0.92111 z m 6.532036,-12.82457 v -13.74568 h -0.86022 -0.86023 l 0.0996,11.69091 c 0.10201,11.96495 0.40738,15.80045 1.25799,15.80045 0.28959,0 0.36279,-2.7737 0.36279,-13.74568 z m 17.023851,5.3457 c 3.19907,-4.60597 5.91491,-8.54734 6.03521,-8.75858 0.15362,-0.26974 -0.27921,-0.72185 -1.45405,-1.51877 l -1.67278,-1.13471 -5.38918,8.98491 c -2.96405,4.94171 -5.46659,9.39942 -5.56119,9.90602 l -0.17201,0.92111 1.19876,-0.0128 1.19876,-0.0128 5.81648,-8.37449 z m 5.30195,6.9181 c 1.03279,-1.91724 1.71528,-2.26252 4.06117,-2.05462 4.97077,0.44054 9.39296,-2.02116 11.46653,-6.38306 0.8064,-1.69631 0.87562,-2.0779 0.87395,-4.81808 -0.002,-2.71218 -0.0753,-3.12599 -0.83149,-4.67018 -1.39957,-2.8581 -3.98753,-5.00365 -7.34592,-6.09015 -1.1401,-0.36885 -2.17542,-1.65548 -2.17415,-2.70193 2.9e-4,-0.31176 0.20661,-0.94945 0.45829,-1.41708 1.46211,-2.71673 1.86628,-3.70813 2.13657,-5.24089 1.04419,-5.92139 -3.36038,-11.90226 -9.39257,-12.75397 -2.54605,-0.35947 -4.8647,0.0945 -7.30734,1.43071 -1.12402,0.61489 -2.41195,1.11798 -2.86204,1.11798 -0.49534,0 -1.42461,-0.43175 -2.35415,-1.09375 -3.78067,-2.69252 -7.383971,-3.572109 -11.295761,-2.75738 -6.326461,1.31764 -10.507541,6.06062 -11.355276,12.88131 -0.314733,2.5323 -1.04113,3.44012 -2.752609,3.44012 -2.163347,0 -3.094237,-1.34675 -2.814011,-4.07113 0.652848,-6.34701 3.789327,-11.62509 8.883224,-14.948729 1.134375,-0.740153 2.506923,-1.492242 3.050106,-1.671309 0.54318,-0.179067 0.987601,-0.478008 0.987601,-0.664315 0,-0.821217 -2.284265,-4.080827 -3.95275,-5.640512 -2.061451,-1.9270281 -5.024688,-3.4787281 -7.764929,-4.0661101 -7.136574,-1.529751 -14.352912,2.043121 -17.861621,8.8434461 -0.732218,1.419133 -1.546585,2.758274 -1.809706,2.975868 -0.367417,0.303847 -1.296553,0.374018 -4.00519,0.302478 -4.079938,-0.107756 -5.584923,0.169742 -8.58408,1.582782 -2.498817,1.177311 -5.907468,4.395261 -7.171175,6.769971 l -0.775674,1.45763 1.365281,0.87513 c 0.750903,0.48131 1.667449,1.19641 2.036768,1.58909 0.369316,0.39269 0.788987,0.71398 0.932601,0.71398 0.143612,0 1.138551,-0.93851 2.210974,-2.08558 2.88112,-3.08165 6.282382,-4.70618 10.790814,-5.15396 1.713133,-0.17015 1.914956,-0.26102 2.395843,-1.07864 0.891698,-1.51612 3.262547,-3.828134 4.264136,-4.158321 1.693916,-0.558423 3.527858,0.787407 3.527858,2.588901 0,0.79926 -0.47299,1.61864 -1.726555,2.99098 -0.593202,0.64939 -1.469355,1.95406 -1.947013,2.89924 -1.201463,2.37745 -1.562235,2.55951 -4.980222,2.51322 -2.36592,-0.032 -3.119793,0.0722 -4.537601,0.62725 -1.939877,0.75947 -4.518959,3.12912 -5.361599,4.92622 l -0.512707,1.09345 0.867634,1.88243 c 1.372171,2.97706 1.848719,5.19456 1.866313,8.6844 0.0086,1.71466 -0.08305,3.50018 -0.203772,3.96782 -0.162867,0.63092 -0.01428,0.4847 0.576109,-0.56683 3.167549,-5.6419 7.727957,-9.25281 13.547702,-10.72701 10.76997,-2.72814 21.74764,3.37713 25.147436,13.98586 l 0.499687,1.55922 0.01569,-7.93565 c 0.02125,-10.74417 -0.07539,-10.58123 6.294333,-10.6121 l 3.30033,-0.016 0.49588,-2.75099 c 0.40778,-2.26225 0.63669,-2.89165 1.28846,-3.5427 1.007931,-1.00681 1.781301,-1.01287 6.295571,-0.0493 4.1256,0.88062 4.83588,1.20177 5.33842,2.41366 0.34515,0.83234 0.22243,1.70252 -1.35091,9.57866 -0.95179,4.76474 -1.69745,8.69808 -1.65699,8.74075 0.0404,0.0427 0.99667,-1.46452 2.12495,-3.34934 2.24317,-3.74728 3.22201,-4.661 4.69734,-4.38488 1.0171,0.19036 9.32177,5.63407 10.0971,6.61865 0.61232,0.77756 0.70408,2.0496 0.21388,2.96456 -0.18091,0.33766 -2.64948,3.9322 -5.4857,7.98786 -2.83622,4.05567 -5.38415,7.72466 -5.66204,8.15334 l -0.50529,0.77939 h 1.71701 1.71701 z M 69.250818,21.584936 c -1.067841,-0.530404 -1.794658,-2.194148 -1.405351,-3.216966 0.694397,-1.824374 2.306457,-2.519122 3.916047,-1.687692 1.046601,0.540617 1.461535,1.230837 1.461535,2.431185 0,1.185949 -0.413285,1.889717 -1.412974,2.406103 -1.001164,0.51715 -1.620903,0.53346 -2.559257,0.0674 z m 5.291786,39.74018 c 1.748809,-1.65211 3.905946,-2.7294 6.217947,-3.10527 0.890623,-0.14479 1.651756,-0.29899 1.69141,-0.34267 0.200024,-0.22033 -1.338259,-4.08096 -2.093176,-5.25325 -1.851046,-2.87443 -5.321881,-5.51585 -8.523685,-6.48678 -2.47701,-0.75115 -6.77964,-0.6857 -9.185629,0.13974 -2.472663,0.84831 -4.935075,2.50137 -6.741081,4.5254 l -1.434481,1.60768 2.616895,0.35014 c 1.43929,0.19257 3.263869,0.55966 4.054616,0.81574 3.868973,1.25293 7.911283,4.13318 10.27181,7.31894 0.759122,1.0245 1.431725,1.86274 1.494674,1.86274 0.06294,0 0.796761,-0.64458 1.6307,-1.43241 z m 30.445936,-24.14588 c 0.009,-0.35664 -0.20973,-0.49598 -0.77824,-0.49598 h -0.7906 l -1.20706,6.58943 c -1.04485,5.70398 -1.2011,7.06546 -1.16285,10.13212 l 0.0442,3.5427 1.94111,-9.63615 c 1.06759,-5.29988 1.94665,-9.85933 1.95344,-10.13212 z M 24.421348,16.135594 c 0,-9.3054941 -0.01129,-9.4944381 -0.567461,-9.4944381 -0.556169,0 -0.567462,0.188944 -0.567462,9.4944381 0,9.305492 0.01129,9.494442 0.567462,9.494442 0.556168,0 0.567461,-0.18895 0.567461,-9.494442 z"
       id="path1528"
       sodipodi:nodetypes="ssscsssssssssssscccsssscssssssssccssscssssssssssccccccccccssccscssscccccssscccccccccscsscccccssccccccccssssssssssssssssssssssssssssssssccsscssscccsscccssccccssssssssssscccsssssccccscccscsccssscssscccsssscsscsssssssssssssssssssscssssssssssscscssscsscsscssssscsssssscccssscsssssssssssccsssscsccccsc" /></g></svg>
