<?xml version="1.0" encoding="UTF-8" standalone="no"?>
<!-- Created with Inkscape (http://www.inkscape.org/) -->

<svg
   width="512"
   height="512"
   viewBox="0 0 135.46666 135.46667"
   version="1.1"
   id="svg5"
   inkscape:version="1.1.2 (b8e25be833, 2022-02-05)"
   sodipodi:docname="Pendientes.svg"
   inkscape:export-filename="C:\Users\axeld\OneDrive\Escritorio\Pendientes.png"
   inkscape:export-xdpi="96"
   inkscape:export-ydpi="96"
   xmlns:inkscape="http://www.inkscape.org/namespaces/inkscape"
   xmlns:sodipodi="http://sodipodi.sourceforge.net/DTD/sodipodi-0.dtd"
   xmlns="http://www.w3.org/2000/svg"
   xmlns:svg="http://www.w3.org/2000/svg">
  <sodipodi:namedview
     id="namedview7"
     pagecolor="#ffffff"
     bordercolor="#111111"
     borderopacity="1"
     inkscape:pageshadow="0"
     inkscape:pageopacity="0"
     inkscape:pagecheckerboard="1"
     inkscape:document-units="mm"
     showgrid="false"
     units="px"
     width="512px"
     inkscape:zoom="0.99597362"
     inkscape:cx="234.94598"
     inkscape:cy="215.86917"
     inkscape:window-width="1366"
     inkscape:window-height="745"
     inkscape:window-x="-8"
     inkscape:window-y="-8"
     inkscape:window-maximized="1"
     inkscape:current-layer="layer1" />
  <defs
     id="defs2" />
  <g
     inkscape:label="Layer 1"
     inkscape:groupmode="layer"
     id="layer1">
    <g
       id="g3187"
       transform="translate(1.9139818,-0.15796783)">
      <path
         style="fill:#000000;stroke-width:0.234375"
         d="m 71.909709,127.60009 c 11.952033,-1.03349 22.772538,-5.12304 32.104951,-12.13389 2.86129,-2.1495 7.99723,-7.13804 10.31495,-10.01891 6.32233,-7.858505 10.76692,-17.657505 12.42594,-27.395495 1.50649,-8.842652 1.17971,-16.64925 -1.06587,-25.463271 -2.02946,-7.965736 -6.187,-16.193557 -11.47078,-22.700791 -2.30665,-2.84076 -7.45688,-7.823213 -10.24942,-9.915524 C 94.7563,13.069219 84.286628,9.0496584 72.730021,7.9786214 57.776934,6.5928074 41.993671,11.437782 29.982976,21.100647 c -2.88087,2.317719 -7.86941,7.453653 -10.01891,10.314948 -6.21964,8.279199 -10.2327096,17.946056 -11.7225596,28.237763 -0.81917,5.658745 -0.49929,14.600908 0.73265,20.481143 0.50449,2.408003 1.6414396,3.554606 3.6875596,3.718863 1.43496,0.115195 2.48781,-0.441413 3.40258,-1.798838 0.66053,-0.980161 0.6763,-1.959647 0.0814,-5.057418 -2.40656,-12.531961 0.12663,-26.053069 6.89393,-36.796875 3.1119,-4.940475 7.84719,-10.288545 12.00521,-13.558766 10.276196,-8.082073 23.593963,-12.191517 36.337529,-11.212615 16.586475,1.274096 31.194245,9.849957 40.195275,23.597647 8.82184,13.47402 10.98219,30.091043 5.89262,45.324876 -2.52978,7.57198 -6.52236,14.14439 -12.02821,19.800295 -4.59406,4.71927 -9.004958,7.94093 -14.665154,10.71124 -6.98459,3.41851 -13.514683,5.04292 -21.332285,5.30656 -8.81812,0.29739 -16.310231,-1.26944 -24.553858,-5.13494 -2.611655,-1.22463 -3.153284,-1.39927 -4.032251,-1.3002 -2.717489,0.3063 -4.155581,3.32753 -2.702796,5.67818 0.472338,0.76426 1.010789,1.11572 3.619291,2.36239 8.121063,3.88124 15.654738,5.6657 24.626899,5.83324 2.449219,0.0457 4.927735,0.0421 5.507813,-0.008 z M 87.316671,90.013475 c 1.129556,-0.27165 2.330015,-1.29611 2.648079,-2.25986 0.348705,-1.05659 0.165508,-2.55366 -0.410356,-3.3534 -0.240087,-0.33343 -5.252939,-3.823029 -11.139673,-7.75467 l -10.703149,-7.148437 -0.0689,-18.439941 c -0.06802,-18.204431 -0.07507,-18.448205 -0.552134,-19.08708 -0.913704,-1.223627 -1.6693,-1.613604 -3.126417,-1.613604 -1.103369,0 -1.499278,0.11484 -2.176394,0.631301 -1.702428,1.298505 -1.611753,7.5e-4 -1.542087,22.071044 0.06159,19.511967 0.06952,19.81222 0.540846,20.464146 0.439338,0.60769 22.05492,15.305551 23.662284,16.089551 0.976282,0.47619 1.974666,0.61577 2.867901,0.40095 z"
         id="path955"
         sodipodi:nodetypes="cssssssssssssscsssssssssssscccsssscssssssss" />
      <path
         d="M 10.118173,89.373009 H 3.9605333 A 21.87192,22.505067 0 0 0 25.834923,111.88062 v 12.86184 c 0,1.86022 1.4064,3.29467 3.03694,3.29467 1.63054,0 3.20197,-1.44712 3.20197,-3.2161 V 111.97692 A 22.027092,22.66473 0 0 0 10.118173,89.373009 Z m 37.59359,-6.335883 a 21.874383,22.507601 0 0 0 -19.12069,11.58453 24.911329,25.63246 0 0 1 5.76354,10.803954 21.884235,22.517738 0 0 0 19.60592,-22.388484 z"
         id="path1450"
         style="stroke-width:0.249844" />
    </g>
  </g>
</svg>
