<?xml version="1.0" encoding="UTF-8" standalone="no"?>
<!-- Created with Inkscape (http://www.inkscape.org/) -->

<svg
   width="128mm"
   height="128mm"
   viewBox="0 0 128 128"
   version="1.1"
   id="svg5"
   xml:space="preserve"
   inkscape:version="1.2.1 (9c6d41e410, 2022-07-14)"
   sodipodi:docname="ventas.svg"
   inkscape:export-filename="..\png\ventas.png"
   inkscape:export-xdpi="96"
   inkscape:export-ydpi="96"
   xmlns:inkscape="http://www.inkscape.org/namespaces/inkscape"
   xmlns:sodipodi="http://sodipodi.sourceforge.net/DTD/sodipodi-0.dtd"
   xmlns="http://www.w3.org/2000/svg"
   xmlns:svg="http://www.w3.org/2000/svg"><sodipodi:namedview
     id="namedview7"
     pagecolor="#ffffff"
     bordercolor="#111111"
     borderopacity="1"
     inkscape:showpageshadow="0"
     inkscape:pageopacity="0"
     inkscape:pagecheckerboard="1"
     inkscape:deskcolor="#d1d1d1"
     inkscape:document-units="mm"
     showgrid="false"
     inkscape:zoom="1.0885159"
     inkscape:cx="279.73868"
     inkscape:cy="345.88379"
     inkscape:window-width="1920"
     inkscape:window-height="1051"
     inkscape:window-x="-9"
     inkscape:window-y="-9"
     inkscape:window-maximized="1"
     inkscape:current-layer="layer1" /><defs
     id="defs2" /><g
     inkscape:label="Capa 1"
     inkscape:groupmode="layer"
     id="layer1"><g
       id="g244"
       transform="matrix(0.9935164,0,0,0.99338334,-34.742791,-86.620517)"><path
         style="fill:#000000;stroke-width:0.264583"
         d="m 41.743918,214.60336 c -2.48712,-0.86353 -3.789484,-2.01562 -5.13758,-4.54481 -0.588469,-1.10404 -0.630293,-1.46342 -0.630293,-5.41584 0,-3.85841 0.05392,-4.3505 0.608865,-5.55625 0.334876,-0.72761 0.98331,-1.70987 1.440965,-2.18282 l 0.8321,-0.85989 -0.8321,-0.8599 c -0.457655,-0.47294 -1.106089,-1.45521 -1.440965,-2.18281 -0.552344,-1.20011 -0.608865,-1.70362 -0.608865,-5.42396 0,-3.72034 0.05652,-4.22385 0.608865,-5.42396 0.334876,-0.7276 0.98331,-1.70987 1.440965,-2.18281 l 0.8321,-0.85989 -0.8321,-0.8599 c -0.457655,-0.47294 -1.106089,-1.45521 -1.440965,-2.18281 -0.55494,-1.20575 -0.608865,-1.69785 -0.608865,-5.55625 0,-4.10715 0.02169,-4.27448 0.72758,-5.61355 0.924031,-1.75289 2.22473,-3.05359 3.977617,-3.97762 l 1.380219,-0.72758 21.578871,-0.0735 21.57887,-0.0735 1.175295,-2.4352 c 4.708888,-9.75677 13.408538,-17.46536 23.519813,-20.84045 12.3633,-4.1268 26.05019,-1.96171 36.52527,5.77783 10.89026,8.04629 16.94029,20.86915 16.31455,34.57818 -0.82288,18.02799 -14.04717,33.10156 -32.67036,37.23899 -2.1093,0.46861 -3.45,0.57157 -7.58898,0.58279 -5.56964,0.0151 -7.49037,-0.27026 -12.08243,-1.79511 l -2.55742,-0.84923 -0.74987,0.62573 c -0.41242,0.34416 -1.40471,0.9422 -2.20507,1.32899 l -1.45521,0.70326 -30.162497,0.0598 c -28.483959,0.0565 -30.239066,0.0332 -31.538375,-0.4179 z m 60.984092,-3.91254 c 0.33337,-0.0893 0.57149,-0.2526 0.52916,-0.36289 -0.0423,-0.11028 -1.3354,-1.04004 -2.8735,-2.06613 -3.143445,-2.09703 -7.125662,-5.74443 -9.109711,-8.34376 l -1.322917,-1.73318 -23.594747,0.0539 c -23.375651,0.0534 -23.601528,0.059 -24.325316,0.59944 -1.587679,1.18551 -1.814315,1.76933 -1.911904,4.92509 -0.110359,3.56867 0.04237,4.46107 0.947609,5.53689 1.364666,1.62181 -0.33448,1.53889 31.686442,1.54624 16.152812,0.004 29.641504,-0.0663 29.974884,-0.15562 z m 27.17511,-0.58015 c 11.62543,-2.5073 21.11507,-10.27717 25.77936,-21.10745 2.58228,-5.99596 3.40124,-11.94765 2.53724,-18.4391 -1.68843,-12.68553 -8.47799,-22.43102 -19.31007,-27.71695 -5.83244,-2.84618 -10.60927,-3.82304 -17.60548,-3.60035 -6.45294,0.20539 -10.60727,1.2777 -16.12103,4.16114 -8.556486,4.47464 -14.723251,12.44372 -17.231525,22.26766 -2.095534,8.2074 -1.55793,15.94842 1.62007,23.3276 4.919969,11.42396 15.245925,19.43092 27.675915,21.46048 3.15177,0.51462 9.44676,0.33902 12.65552,-0.35303 z M 86.345102,192.14114 c -1.562499,-3.46354 -2.368306,-5.99183 -3.290297,-10.32361 l -0.127744,-0.60017 -20.082784,0.071 c -19.814871,0.0701 -20.09253,0.0783 -20.813327,0.61652 -1.587661,1.18555 -1.814287,1.76935 -1.911875,4.92508 -0.110359,3.56868 0.04237,4.46108 0.947609,5.53689 1.348903,1.60308 0.341612,1.53857 24.200899,1.54987 l 21.883202,0.0103 -0.805683,-1.78594 z m -3.844126,-18.78541 c 0.09508,-2.00091 0.409692,-4.76912 0.699141,-6.15156 0.289446,-1.38245 0.52783,-2.60499 0.52974,-2.71676 0.0019,-0.11177 -9.215185,-0.1713 -20.482439,-0.13229 -20.222139,0.07 -20.495324,0.0779 -21.216464,0.61644 -1.587663,1.18554 -1.814291,1.76934 -1.911879,4.92508 -0.110359,3.56868 0.04237,4.46107 0.947609,5.53689 1.34152,1.59431 0.557946,1.53857 21.789558,1.54986 l 19.471864,0.0104 z M 59.788544,149.77019 c -1.847561,-0.47618 -3.307306,-1.66199 -4.269274,-3.46811 -0.455643,-0.85547 -0.499074,-1.79801 -0.569973,-12.36927 l -0.07675,-11.44323 h -1.661169 c -4.053334,0 -6.819709,-1.99379 -7.453442,-5.37188 -0.42942,-2.28901 -0.205086,-2.74249 7.318683,-14.79457 3.931778,-6.29819 7.467131,-11.789578 7.856344,-12.203087 2.404446,-2.554546 6.687005,-2.554546 9.086895,0 1.088223,1.15835 14.522986,22.796547 14.971817,24.113787 0.482373,1.41569 0.310605,3.29665 -0.434398,4.75698 -1.154568,2.26314 -3.561186,3.49877 -6.814494,3.49877 h -1.661168 l -0.07675,11.44323 c -0.07475,11.1451 -0.09163,11.4708 -0.64783,12.50157 -0.669197,1.24016 -1.707078,2.25832 -3.000793,2.94377 -0.803653,0.4258 -1.642882,0.49765 -6.349999,0.54363 -2.983177,0.0291 -5.781146,-0.0391 -6.217708,-0.15159 z m 10.799164,-4.30507 c 1.238821,-0.65981 1.222091,-0.47593 1.230963,-13.52871 l 0.0084,-12.3813 0.649433,-0.64943 c 0.614841,-0.61484 0.812834,-0.64943 3.717305,-0.64943 2.225847,0 3.281072,-0.11025 3.84465,-0.40169 0.830366,-0.42939 1.205238,-1.34261 0.948367,-2.31029 -0.08692,-0.32742 -3.287741,-5.59412 -7.112947,-11.70378 -5.533559,-8.838261 -7.102252,-11.160284 -7.675861,-11.362012 -1.633156,-0.57435 -1.707737,-0.480867 -9.249411,11.593702 -4.827466,7.72899 -7.081952,11.57156 -7.081952,12.07053 0,0.4026 0.227445,1.01308 0.505433,1.35663 0.475539,0.58768 0.719527,0.63244 4.125227,0.75691 3.405869,0.12447 3.649637,0.16921 4.124775,0.75692 0.480489,0.59433 0.505389,1.2231 0.513395,12.96458 0.0088,12.9317 -0.0031,12.79582 1.182211,13.4756 0.730761,0.41909 9.486381,0.42912 10.269998,0.0118 z"
         id="path125"
         sodipodi:nodetypes="ssssscssssscssssscccssssssscsscssssssscsssscsssssssssssscsccsssccccsssscssccsssscsssssssscssscsssscsssssssssssssss" /><path
         style="fill:#000000;stroke-width:0.0724104"
         d="m 121.27853,207.95661 c -0.66679,-0.19497 -1.09294,-0.48394 -1.6255,-1.10226 -0.39111,-0.45407 -0.82101,-1.45299 -0.91101,-2.11676 -0.0425,-0.31402 -0.0684,-3.49564 -0.0687,-8.45299 l -5e-4,-7.94945 -0.93064,-0.053 c -6.46233,-0.36841 -12.00658,-3.23937 -16.47026,-8.52874 -3.974962,-4.71026 -6.337128,-11.0731 -6.601645,-17.78249 l -0.04565,-1.15796 h 4.140976 c 3.241609,0 4.355089,0.0258 5.126769,0.11849 4.87888,0.58644 9.34425,2.7778 13.15607,6.45629 0.72804,0.70257 2.50813,2.78574 3.0868,3.61234 2.61778,3.73942 4.31998,7.95648 5.03443,12.47244 0.36324,2.29595 0.35837,2.14815 0.38767,11.77448 0.0197,6.46683 0.005,9.12696 -0.0491,9.48989 -0.11944,0.78641 -0.42355,1.43001 -0.97449,2.06223 -0.92449,1.06093 -2.12516,1.48789 -3.25502,1.15753 z m 6.67077,-27.94839 c -0.31742,-1.43734 -1.07153,-3.67985 -1.83091,-5.44463 -1.07649,-2.50173 -2.33939,-4.65382 -4.08265,-6.95714 l -0.32569,-0.43036 0.41983,-0.79942 c 3.61541,-6.88432 9.7259,-11.65933 16.57694,-12.95397 1.74027,-0.32886 2.26078,-0.35663 6.68435,-0.35663 h 4.23341 l -0.0457,1.1589 c -0.26723,6.77799 -2.6336,13.07007 -6.74081,17.92341 -2.00526,2.36956 -4.05468,4.07549 -6.66936,5.55151 -2.56159,1.44607 -4.8216,2.21788 -7.82092,2.67095 l -0.30816,0.0466 z"
         id="path193" /></g></g></svg>
