<?xml version="1.0" standalone="no"?>
<!DOCTYPE svg PUBLIC "-//W3C//DTD SVG 20010904//EN"
 "http://www.w3.org/TR/2001/REC-SVG-20010904/DTD/svg10.dtd">
<svg version="1.0" xmlns="http://www.w3.org/2000/svg"
 width="512.000000pt" height="512.000000pt" viewBox="0 0 512.000000 512.000000"
 preserveAspectRatio="xMidYMid meet">
<metadata>
Created by potrace 1.16, written by Peter Selinger 2001-2019
</metadata>
<g transform="translate(0.000000,512.000000) scale(0.100000,-0.100000)"
fill="#000000" stroke="none">
<path d="M2464 5091 c-21 -16 -474 -465 -1006 -997 -1017 -1020 -1019 -1022
-1081 -1174 -59 -143 -57 -92 -57 -1366 0 -1119 1 -1173 19 -1225 30 -87 55
-131 110 -186 60 -61 114 -95 196 -123 57 -20 83 -20 1915 -20 1832 0 1858 0
1915 20 155 53 272 181 310 336 14 62 16 181 13 1239 l-3 1170 -23 70 c-32 94
-92 209 -142 270 -68 82 -1983 1996 -2008 2006 -13 5 -45 9 -71 9 -37 0 -57
-6 -87 -29z m1964 -2247 c65 -125 62 -66 62 -1290 0 -764 -3 -1122 -11 -1141
-13 -35 -45 -70 -84 -91 -27 -15 -110 -17 -857 -20 l-828 -3 0 490 0 489 353
4 c394 5 409 7 562 86 106 55 238 191 293 302 66 133 74 177 79 405 5 224 -1
247 -67 293 -31 21 -42 22 -224 22 -229 0 -295 -12 -422 -75 -244 -120 -393
-360 -394 -632 l0 -93 -90 0 -90 0 0 573 c0 541 -1 578 -20 653 -64 252 -252
443 -505 516 -71 20 -102 22 -282 23 -188 0 -203 -1 -229 -21 -66 -48 -69 -59
-72 -251 -5 -258 28 -391 132 -537 130 -182 319 -283 569 -301 l97 -7 0 -644
0 -644 -84 0 -83 0 -6 113 c-3 81 -12 134 -30 190 -70 217 -239 386 -462 464
-78 26 -86 27 -301 28 l-220 0 -37 -28 c-54 -41 -60 -73 -55 -303 4 -182 7
-206 31 -279 37 -113 90 -198 177 -285 87 -86 171 -139 285 -177 80 -27 81
-27 433 -31 l352 -3 0 -170 0 -170 -822 3 -823 3 -41 24 c-24 13 -52 41 -65
65 l-24 41 0 1125 c0 1069 1 1128 19 1184 40 128 42 131 998 1091 l912 917
921 -924 c786 -787 926 -932 953 -984z m-2374 196 c119 -19 233 -96 292 -196
37 -63 54 -131 54 -218 l0 -79 -82 8 c-141 12 -248 66 -319 161 -55 73 -80
142 -86 246 l-6 88 44 0 c24 0 70 -4 103 -10z m1636 -1009 c0 -255 -182 -441
-432 -441 l-58 0 0 78 c0 235 172 409 408 411 l82 1 0 -49z m-2075 -606 c182
-48 305 -212 305 -406 l0 -69 -72 0 c-240 0 -418 180 -418 421 l0 69 63 0 c34
0 89 -7 122 -15z"/>
</g>
</svg>
