<svg xmlns="http://www.w3.org/2000/svg" viewBox="0 0 1245 297.5"><defs><style>.cls-1{fill:#8cc63f;}.cls-2{font-size:250px;fill:#009245;font-family:HelveticaNowDisplay-Bold, Helvetica Now Display;font-weight:700;}.cls-3{letter-spacing:0em;}.cls-4{letter-spacing:-0.02em;}.cls-5{letter-spacing:-0.01em;}</style></defs><title>Recurso 1</title><g id="Capa_2" data-name="Capa 2"><g id="Capa_6" data-name="Capa 6"><path class="cls-1" d="M198.35,61.23h-25A88.8,88.8,0,0,0,262.15,150v50.75c0,7.33,5.71,13,12.33,13s13-5.71,13-12.68V150.4A89.43,89.43,0,0,0,198.35,61.23ZM351,36.21a88.78,88.78,0,0,0-77.63,45.71,101.12,101.12,0,0,1,23.39,42.63,88.85,88.85,0,0,0,79.61-88.34Z"/><text class="cls-2" transform="translate(0 214)">S</text><text class="cls-2" transform="translate(376 214)"><tspan class="cls-3">S</tspan><tspan x="159.75" y="0">G</tspan><tspan class="cls-4" x="351" y="0">R</tspan><tspan class="cls-5" x="513.25" y="0">A</tspan><tspan x="689.5" y="0">N</tspan></text></g></g></svg>