<?xml version="1.0" encoding="UTF-8" standalone="no"?>
<svg
   viewBox="0 0 400 399.99999"
   version="1.1"
   id="svg8"
   sodipodi:docname="LogoNegroHoja.svg"
   width="400"
   height="400"
   xml:space="preserve"
   inkscape:version="1.2.1 (9c6d41e410, 2022-07-14)"
   xmlns:inkscape="http://www.inkscape.org/namespaces/inkscape"
   xmlns:sodipodi="http://sodipodi.sourceforge.net/DTD/sodipodi-0.dtd"
   xmlns="http://www.w3.org/2000/svg"
   xmlns:svg="http://www.w3.org/2000/svg"
   xmlns:rdf="http://www.w3.org/1999/02/22-rdf-syntax-ns#"
   xmlns:cc="http://creativecommons.org/ns#"
   xmlns:dc="http://purl.org/dc/elements/1.1/"><defs
     id="defs12" /><sodipodi:namedview
     id="namedview10"
     pagecolor="#ffffff"
     bordercolor="#111111"
     borderopacity="1"
     inkscape:showpageshadow="0"
     inkscape:pageopacity="0"
     inkscape:pagecheckerboard="1"
     inkscape:deskcolor="#d1d1d1"
     showgrid="false"
     inkscape:zoom="1.2160108"
     inkscape:cx="150.49209"
     inkscape:cy="184.62007"
     inkscape:window-width="1743"
     inkscape:window-height="1033"
     inkscape:window-x="-8"
     inkscape:window-y="0"
     inkscape:window-maximized="0"
     inkscape:current-layer="svg8" /><title
     id="title2">Recurso 4</title><metadata
     id="metadata849"><rdf:RDF><cc:Work
         rdf:about=""><dc:title>Recurso 4</dc:title></cc:Work></rdf:RDF></metadata><g
     id="g4546"
     transform="matrix(1.0784976,0,0,1.1543651,-102.02332,-109.97565)"><g
       id="Capa_2"
       data-name="Capa 2"
       transform="matrix(1.489469,0,0,1.7028734,104.8189,104.8189)"><g
         id="Capa_8"
         data-name="Capa 8"><path
           d="M 25,25 H 0 a 88.8,88.8 0 0 0 88.81,88.81 v 50.75 c 0,7.34 5.71,13 12.33,13 6.62,0 13,-5.71 13,-12.69 V 114.19 A 89.43,89.43 0 0 0 25,25 Z M 177.63,0 A 88.81,88.81 0 0 0 100,45.71 101.14,101.14 0 0 1 123.4,88.34 88.85,88.85 0 0 0 203,0 Z"
           id="path4" /></g></g><path
       style="fill:#000000;stroke-width:0.295677"
       d="m 377.17398,431.96728 c -2.40357,-0.40195 -5.52717,-2.13174 -7.24813,-4.01388 -1.59154,-1.74061 -2.4061,-3.11113 -3.2047,-5.39198 -0.42222,-1.20589 -0.48972,-4.25221 -0.57824,-26.0948 l -0.1002,-24.72953 -0.7545,-0.75416 -0.75451,-0.75415 -24.74083,-0.10016 c -21.85258,-0.0885 -24.90028,-0.15595 -26.10673,-0.57798 -3.78734,-1.32485 -6.51621,-3.62769 -8.10344,-6.83834 -3.78481,-7.65597 -0.16851,-16.15815 8.10344,-19.05176 1.20645,-0.42203 4.25415,-0.4895 26.10673,-0.57797 l 24.74083,-0.10017 0.75451,-0.75415 0.7545,-0.75415 0.1002,-24.72953 c 0.0885,-21.84259 0.15602,-24.88891 0.57824,-26.0948 1.32546,-3.78562 3.62936,-6.51324 6.84148,-8.09974 7.65946,-3.78308 16.16554,-0.16843 19.06047,8.09974 0.42222,1.20589 0.48971,4.25221 0.57823,26.0948 l 0.10021,24.72953 0.7545,0.75415 0.7545,0.75415 24.74084,0.10017 c 21.85257,0.0885 24.90028,0.15594 26.10673,0.57797 3.78734,1.32485 6.51621,3.6277 8.10343,6.83835 3.78483,7.65596 0.16851,16.15815 -8.10343,19.05175 -1.20645,0.42203 -4.25416,0.4895 -26.10673,0.57798 l -24.74084,0.10016 -0.7545,0.75415 -0.7545,0.75416 -0.10021,24.72953 c -0.10813,26.68364 -0.0374,25.46397 -1.65968,28.64233 -1.6995,3.32977 -5.80404,6.25608 -9.65144,6.88092 -2.00896,0.32627 -2.64844,0.32321 -4.71623,-0.0226 z"
       id="path4493" /></g></svg>
