<?xml version="1.0" encoding="UTF-8" standalone="no"?>
<!-- Created with Inkscape (http://www.inkscape.org/) -->

<svg
   width="512"
   height="512"
   viewBox="0 0 135.46666 135.46667"
   version="1.1"
   id="svg5"
   xml:space="preserve"
   inkscape:version="1.2.1 (9c6d41e410, 2022-07-14)"
   sodipodi:docname="Transplantando.svg"
   xmlns:inkscape="http://www.inkscape.org/namespaces/inkscape"
   xmlns:sodipodi="http://sodipodi.sourceforge.net/DTD/sodipodi-0.dtd"
   xmlns="http://www.w3.org/2000/svg"
   xmlns:svg="http://www.w3.org/2000/svg"><sodipodi:namedview
     id="namedview7"
     pagecolor="#ffffff"
     bordercolor="#111111"
     borderopacity="1"
     inkscape:showpageshadow="0"
     inkscape:pageopacity="0"
     inkscape:pagecheckerboard="1"
     inkscape:deskcolor="#d1d1d1"
     inkscape:document-units="mm"
     showgrid="false"
     inkscape:zoom="0.76969697"
     inkscape:cx="273.48425"
     inkscape:cy="256.59449"
     inkscape:window-width="1756"
     inkscape:window-height="1033"
     inkscape:window-x="0"
     inkscape:window-y="0"
     inkscape:window-maximized="0"
     inkscape:current-layer="layer1" /><defs
     id="defs2" /><g
     inkscape:label="Capa 1"
     inkscape:groupmode="layer"
     id="layer1"><path
       id="path1544"
       style="fill:#000000;stroke-width:0.264583"
       d="m 28.07569,106.79422 -1.22576,1.61334 -2.86029,0.15864 c -3.81212,0.21131 -6.4967,0.93301 -10.00353,2.68976 -3.29947,1.65288 -6.3875303,4.11465 -8.4129203,6.70709 -1.48205,1.89696 -3.40331,5.40699 -4.15375,7.58816 -0.74821004,2.17471 -1.39136004,5.84053 -1.18753004,6.76858 0.22455,1.02234 1.34300004,2.339 2.36420004,2.78381 0.66337,0.28899 12.2642703,0.35374 65.2327203,0.36174 60.82016,0.009 64.47766,-0.016 65.3469,-0.45269 2.1352,-1.07276 2.57695,-3.1228 1.61127,-7.47448 -1.93825,-8.73448 -7.69585,-16.22922 -15.49672,-20.17293 -5.65503,-2.85884 -13.5751,-3.8536 -19.602929,-2.46186 l -1.87534,0.43305 -3.01945,-3.00447 c -3.79955,-3.781442 -7.0042,-5.737702 -11.4037,-8.746482 l -2.11159,-1.4441 c -0.947721,-0.62553 -2.240321,-1.3351 -3.528941,-1.79288 -15.83289,-2.79985 -36.54496,-0.6882 -49.67264,16.445722 z m 55.758361,-3.32848 c 2.00806,1.36152 6.21978,4.92133 6.21978,5.25704 0,0.11369 -0.63231,0.64238 -1.40509,1.17461 -0.77275,0.53224 -2.41932,2.01049 -3.6592,3.28507 -3.5352,3.63414 -5.426931,6.76306 -6.999061,11.57759 v 5.1e-4 l -0.86403,2.64584 -13.65188,0.0687 c -10.78559,0.0541 -13.67622,-10e-4 -13.76712,-0.26459 -1.2668,-3.66874 -2.09505,-5.42007 -3.66179,-7.74164 -2.14803,-3.1829 -5.04746,-5.80443 -8.75968,-7.91993 l -2.03191,-1.15807 2.19831,-2.23811 C 50.67162,96.230708 68.7163,93.420868 83.834051,103.46574 Z m 22.094769,8.87026 c 2.94896,-0.004 3.94099,0.10165 5.68854,0.60461 6.05811,1.74359 11.35698,6.23494 13.89011,11.77293 0.4112,0.89898 0.82599,1.9019 0.92139,2.22932 l 0.17311,0.59531 H 106.05026 85.498551 l 0.16588,-0.7276 c 0.32512,-1.42703 2.33378,-5.0635 3.73466,-6.76186 1.94167,-2.35402 4.29816,-4.20287 7.13703,-5.59914 3.530149,-1.73634 5.179639,-2.10757 9.392699,-2.11357 z m -80.69791,4.25659 c 2.89273,-0.001 3.57981,0.0887 5.4808,0.7183 2.58585,0.85642 5.62849,2.81109 7.34115,4.71599 1.08401,1.20568 2.71461,3.77973 3.19774,5.04827 0.16676,0.43782 -0.70322,0.46302 -16.00471,0.46302 H 9.0644497 l 1.1146603,-2.1425 c 1.97863,-3.80318 5.28329,-6.57286 9.63042,-8.07238 1.86637,-0.64376 2.50167,-0.7297 5.42138,-0.7307 z"
       sodipodi:nodetypes="cccsssssccsscccsccccssscccccscccccsscccccsccssssscsss" /><path
       d="M 55.63048,34.481013 49.925684,32.163316 A 21.871922,25.005631 22.110519 0 0 60.778382,63.56602 l -5.379029,13.239977 c -0.777975,1.914913 -0.07491,3.920891 1.435724,4.534617 1.510629,0.613726 3.571699,-0.284457 4.311514,-2.105442 L 66.518205,66.013446 A 22.027094,25.183035 22.110519 0 0 55.63048,34.481013 Z m 37.478726,7.627858 a 21.874385,25.008446 22.110519 0 0 -22.559394,4.728196 24.911331,28.480512 22.110519 0 1 0.82131,13.290942 21.884237,25.01971 22.110519 0 0 27.52731,-15.667138 z"
       id="path3286"
       style="stroke-width:0.263359" /><path
       style="fill:#000000;stroke-width:0.264583"
       id="path1615"
       d="" /><path
       style="fill:#000000;stroke-width:0.264583"
       id="path1613"
       d="" /><path
       style="fill:#000000;stroke-width:0.264583"
       id="path1611"
       d="" /><path
       style="fill:#000000;stroke-width:0.0719535"
       d="m 88.102718,14.878768 c -6.315163,0.983895 -11.449082,5.497965 -12.506268,10.996313 -0.277904,1.44533 -0.264754,3.246626 0.02648,3.628002 0.436643,0.571792 1.520439,0.482308 1.86981,-0.154382 0.08707,-0.158639 0.110226,-0.443315 0.0891,-1.09451 -0.128564,-3.961834 2.156983,-7.688981 6.059742,-9.881903 2.730036,-1.533979 5.905666,-2.153032 9.076207,-1.769302 2.047819,0.247847 3.773238,0.863953 5.642355,2.014752 0.93197,0.573803 3.514766,2.359299 3.474336,2.401824 -0.0103,0.01069 -1.24529,-0.0846 -2.744581,-0.211913 -1.49929,-0.127315 -2.881203,-0.214588 -3.070913,-0.193941 -0.295918,0.03221 -0.383103,0.07772 -0.613535,0.320253 -0.355425,0.374096 -0.393528,0.682478 -0.129711,1.049521 0.119964,0.166903 0.296016,0.303514 0.457475,0.354985 0.144353,0.04602 1.972736,0.226437 4.063068,0.400937 2.090327,0.1745 4.263067,0.360119 4.828297,0.412489 1.19752,0.110949 1.44086,0.05999 1.80662,-0.378353 0.20299,-0.243238 0.21567,-0.295991 0.15265,-0.632907 -0.0699,-0.373589 -2.82495,-7.586336 -3.01893,-7.903592 -0.2711,-0.443385 -0.92209,-0.57314 -1.47501,-0.294103 -0.27528,0.138935 -0.36203,0.231276 -0.46632,0.496365 l -0.12811,0.325682 0.8368,2.185026 c 0.46025,1.201763 0.87425,2.281293 0.92002,2.398957 0.0716,0.184044 -0.21954,0.01038 -2.08375,-1.242959 -1.191836,-0.801288 -2.453597,-1.597919 -2.803927,-1.77028 -3.167264,-1.558343 -6.538738,-2.037015 -10.261906,-1.456948 z"
       id="path1629" /></g></svg>
